<?xml version="1.0" encoding="UTF-8" standalone="no"?>
<!-- Created with Inkscape (http://www.inkscape.org/) -->

<svg
   width="610"
   height="820"
   viewBox="0 0 161.39583 216.95834"
   version="1.1"
   id="svg1134"
   inkscape:version="1.1 (c4e8f9e, 2021-05-24)"
   sodipodi:docname="man_back_muscles.svg"
   xmlns:inkscape="http://www.inkscape.org/namespaces/inkscape"
   xmlns:sodipodi="http://sodipodi.sourceforge.net/DTD/sodipodi-0.dtd"
   xmlns:xlink="http://www.w3.org/1999/xlink"
   xmlns="http://www.w3.org/2000/svg"
   xmlns:svg="http://www.w3.org/2000/svg">
  <sodipodi:namedview
     id="namedview1136"
     pagecolor="#ffffff"
     bordercolor="#666666"
     borderopacity="1.0"
     inkscape:pageshadow="2"
     inkscape:pageopacity="0.0"
     inkscape:pagecheckerboard="0"
     inkscape:document-units="mm"
     showgrid="false"
     inkscape:zoom="0.38465208"
     inkscape:cx="223.57867"
     inkscape:cy="439.35808"
     inkscape:window-width="1312"
     inkscape:window-height="912"
     inkscape:window-x="0"
     inkscape:window-y="25"
     inkscape:window-maximized="0"
     inkscape:current-layer="layer2"
     height="820mm"
     units="px" />
  <defs
     id="defs1131" />
  <g
     inkscape:label="Слой 1"
     inkscape:groupmode="layer"
     id="layer1">
    <rect
       style="fill:#ffff00;fill-opacity:0;stroke-width:0.264583"
       id="DELTA_AREA"
       width="20.655106"
       height="10.970074"
       x="39.209305"
       y="35.532001" />
    <rect
       style="fill:#ffff00;fill-opacity:0;stroke-width:0.264583"
       id="DELTA_AREA1"
       width="20.655106"
       height="10.970074"
       x="102.64582"
       y="35.532001" />
    <rect
       style="fill:#ffff00;fill-opacity:0;stroke-width:0.264583"
       id="TRICEPS_AREA"
       width="18.030558"
       height="42.6437"
       x="38.636906"
       y="55.166367" />
    <rect
       style="fill:#ffff00;fill-opacity:0;stroke-width:0.264583"
       id="TRICEPS_AREA1"
       width="18.030558"
       height="42.6437"
       x="106.37031"
       y="55.166367" />
    <rect
       style="fill:#ffff00;fill-opacity:0;stroke-width:0.228058"
       id="BICEPS_BEDR_AREA"
       width="46.364288"
       height="32.107914"
       x="57.855492"
       y="114.81885" />
    <rect
       style="fill:#ffff00;fill-opacity:0;stroke-width:0.301121"
       id="GOLEN_AREA"
       width="46.364288"
       height="55.976078"
       x="57.855492"
       y="156.45163" />
    <rect
       style="fill:#ffff00;fill-opacity:0;stroke-width:0.266227"
       id="SHIROCH_AREA"
       width="46.364262"
       height="16.126696"
       x="57.855492"
       y="74.253197" />
    <rect
       style="fill:#ffff00;fill-opacity:0;stroke-width:0.215154"
       id="TRAPECIA_AREA"
       width="39.162598"
       height="12.469477"
       x="61.399937"
       y="43.309822" />
    <rect
       style="fill:#ffff00;fill-opacity:0;stroke-width:0.264582"
       id="BUTT_AREA"
       width="46.364262"
       height="24.326925"
       x="57.855492"
       y="90.43898" />
    <path
       style="fill:#ff0000;fill-opacity:0.05;stroke-width:0.184635"
       d="m 85.625071,115.72536 c -1.750556,-0.5683 -2.797727,-1.44142 -3.817006,-3.18265 l -0.807824,-1.37999 -0.82015,1.16585 c -0.451091,0.64121 -0.872675,1.31323 -0.936888,1.49337 -0.06414,0.18016 -0.263977,0.38788 -0.443936,0.46161 -0.179978,0.0738 -0.701666,0.35855 -1.159301,0.63298 -1.633705,0.97963 -5.981926,1.39125 -7.720104,0.73081 -2.150387,-0.81709 -4.699453,-3.42296 -5.312576,-5.43096 -0.292861,-0.95913 -0.347983,-1.6814 -0.327528,-4.29198 0.02318,-2.95991 0.05792,-3.24927 0.611336,-5.07745 1.015145,-3.354135 2.32584,-5.661647 4.805712,-8.46057 0.555733,-0.62722 1.095789,-1.140351 1.200121,-1.140293 0.4814,2.62e-4 2.759375,1.634829 4.623403,3.317526 1.66424,1.50232 2.280354,2.210528 3.257952,3.744902 1.204176,1.889985 1.807491,2.960305 2.159399,3.830875 l 0.186604,0.46158 0.01244,-0.51301 c 0.02518,-1.03403 1.918037,-4.302251 3.382636,-5.840506 1.095949,-1.151068 6.205443,-5.001471 6.636961,-5.001471 0.146266,0 1.165214,1.135068 2.264345,2.522374 1.595507,2.013826 2.127634,2.842085 2.639245,4.108106 0.952304,2.356447 1.337183,4.818837 1.337183,8.554927 v 3.12167 l -0.670612,1.56106 c -0.570008,1.32677 -0.840166,1.70825 -1.800208,2.54181 -0.621273,0.5394 -1.71116,1.29724 -2.422,1.68409 -1.2545,0.6827 -1.354818,0.70507 -3.415758,0.76188 -1.829723,0.0503 -2.308615,-0.002 -3.46351,-0.37654 z"
       id="BUTT" />
    <path
       style="fill:#ff0000;fill-opacity:0.05;stroke-width:0.195349"
       d="m 110.34971,76.237792 c -1.33286,-1.221066 -2.79666,-3.25617 -3.12032,-4.338179 -0.0803,-0.268606 -1.28711,-2.773954 -2.68165,-5.567443 -2.18439,-4.375606 -2.57255,-5.295517 -2.80252,-6.641857 -0.35274,-2.065129 -0.34489,-5.013128 0.0178,-6.738026 0.16099,-0.76531 0.35039,-2.012319 0.42095,-2.77113 l 0.12823,-1.379654 0.89433,-0.567167 c 1.3351,-0.846695 2.37203,-1.308207 3.25048,-1.446701 0.76628,-0.120805 0.83225,-0.08371 2.53954,1.427194 1.35003,1.194742 1.99544,1.950831 2.80852,3.290099 1.83727,3.026329 2.48355,4.391493 3.5975,7.59934 2.03485,5.859984 2.28169,6.804285 2.28169,8.729255 0,0.983174 -0.10184,1.934227 -0.2327,2.174279 -0.12803,0.234681 -0.41666,1.210133 -0.64144,2.167672 -0.4838,2.060847 -0.73599,2.31474 -1.75453,1.766231 l -0.7044,-0.379342 -0.92184,0.521818 c -0.87665,0.496261 -0.92481,0.567713 -0.98316,1.459011 -0.10776,1.646492 -0.80533,1.877598 -2.09663,0.6946 z"
       id="TRICEPS1"
       sodipodi:nodetypes="cccscccsssssscsscsscc" />
    <path
       style="fill:#ff0000;fill-opacity:0.05;stroke-width:0.183638"
       d="M 79.331063,73.67315 C 78.753271,72.915633 77.962265,71.133087 77.314586,69.129046 77.03714,68.270529 76.232848,66.535141 75.527306,65.272616 73.830228,62.23583 72.715108,59.90881 71.831235,57.559769 71.143137,55.731045 71.096728,55.475211 70.931785,52.601506 70.787546,50.088695 70.66566,49.273651 70.217742,47.82688 69.920695,46.867363 69.628205,45.453299 69.567793,44.684516 69.416712,42.76189 68.691941,41.757281 66.729941,40.750969 c -3.767122,-1.932159 -6.617479,-4.134878 -6.999163,-5.40883 -0.360881,-1.204512 -0.630749,-1.057725 4.887298,-2.658296 0.808024,-0.234373 1.717031,-0.482269 2.02005,-0.550879 0.302998,-0.06862 1.625194,-0.65219 2.938219,-1.296837 2.231475,-1.095576 2.513185,-1.2959 4.31553,-3.068778 1.060498,-1.04318 2.071155,-2.064083 2.245876,-2.268672 0.446674,-0.523061 0.83636,-2.860957 0.736775,-4.420197 -0.07869,-1.231544 -0.05672,-1.329819 0.349007,-1.559924 0.612572,-0.347474 7.559536,-0.355275 7.906616,-0.0089 0.168789,0.168455 0.24605,0.92778 0.26246,2.57984 0.0283,2.844456 0.247538,3.38896 2.081356,5.16975 1.071269,1.040288 3.317286,2.754592 3.608973,2.754592 0.0555,0 0.569474,0.273668 1.141979,0.608155 1.711612,1.000013 3.716958,1.745883 6.777274,2.520729 3.310229,0.838127 3.721069,0.986911 3.721069,1.347565 0,0.469419 -1.94691,2.757351 -3.143963,3.694672 -0.644362,0.504552 -2.27855,1.496205 -3.63154,2.203672 -2.436464,1.273999 -2.463152,1.294864 -2.791384,2.181307 -0.182266,0.492256 -0.424723,1.510685 -0.53879,2.263181 -0.114076,0.752489 -0.411134,2.167768 -0.660115,3.14506 -0.28709,1.126834 -0.522142,2.779511 -0.64249,4.517496 -0.186974,2.700084 -0.206015,2.784091 -1.287791,5.681804 -1.431599,3.834747 -2.065116,5.174671 -3.416962,7.227022 -0.711594,1.080339 -1.29574,2.243112 -1.614487,3.213687 -0.678322,2.065491 -1.606026,4.055618 -2.297536,4.928725 -0.559978,0.707024 -0.600838,0.724004 -1.742304,0.724004 -1.103306,0 -1.194459,-0.03352 -1.624835,-0.597792 z"
       id="TRAPECIA" />
    <path
       style="fill:#ff0000;fill-opacity:0.05;stroke-width:0.181074"
       d="m 91.608571,88.392509 c -0.609962,-0.297868 -1.219953,-0.675238 -1.355539,-0.838603 -0.186552,-0.224787 -0.247124,-1.050699 -0.249031,-3.395749 -0.002,-2.616961 -0.05662,-3.239476 -0.350282,-4.004084 -0.764457,-1.990158 -3.359913,-5.07097 -5.129696,-6.088949 l -0.950639,-0.546805 8.74e-4,-0.937348 c 5.02e-4,-0.51554 0.112932,-1.680825 0.249411,-2.589521 0.225718,-1.50305 0.369091,-1.870779 1.588583,-4.074149 1.327176,-2.397904 2.455393,-4.734701 3.593938,-7.443812 0.323695,-0.770207 0.690055,-1.484626 0.814138,-1.587598 0.155499,-0.129044 1.041722,-0.124356 2.852014,0.01509 1.444527,0.11127 3.064112,0.163902 3.599059,0.116956 1.386201,-0.121647 4.141249,-0.633119 4.739969,-0.879973 0.30212,-0.124565 0.57426,-0.143223 0.67145,-0.04605 0.0898,0.08988 0.21848,1.140558 0.28577,2.334827 0.10705,1.900018 0.0729,2.361923 -0.27322,3.695869 -0.21754,0.83846 -0.59135,1.93848 -0.83065,2.444491 -0.72442,1.531918 -2.099948,5.361549 -2.444168,6.804899 -0.178141,0.746925 -0.456971,2.220793 -0.619635,3.275259 -0.364073,2.359864 -1.901627,7.756305 -2.612769,9.170126 -0.81156,1.61344 -1.534836,3.504684 -1.645963,4.303896 -0.129945,0.934639 -0.476052,0.983174 -1.934015,0.27121 z"
       id="SHIROCH1"
       sodipodi:nodetypes="csccscccsssssscsscscsscc" />
    <path
       style="fill:#ff0000;fill-opacity:0.05;stroke-width:0.147097"
       d="m 111.53983,51.365999 c -0.26515,-0.386179 -0.84614,-1.108451 -1.29111,-1.605045 -1.21807,-1.359456 -2.5959,-3.077746 -3.03105,-3.780032 -0.21319,-0.34408 -0.56164,-0.81501 -0.77435,-1.046519 -0.61343,-0.667589 -2.49048,-2.008018 -2.92903,-2.091665 -0.44687,-0.08522 -1.26433,-0.13451 -5.621488,-0.33886 -1.658477,-0.07777 -3.192258,-0.186317 -3.40833,-0.241184 -0.480335,-0.121952 -1.069311,-0.720229 -0.966526,-0.981756 0.04156,-0.105253 0.860589,-0.579487 1.82053,-1.053872 2.227029,-1.100594 3.542593,-2.075858 5.610374,-4.159161 1.20988,-1.218944 1.75564,-1.671121 2.01704,-1.671121 1.27137,0 4.67367,1.971073 6.39158,3.702908 1.12375,1.132798 1.72823,2.283534 2.60272,4.95467 l 0.64724,1.977233 -0.0396,3.469551 c -0.036,3.147953 -0.063,3.474069 -0.29277,3.518276 -0.16651,0.03201 -0.41869,-0.192053 -0.73546,-0.653423 z"
       id="DELTA1"
       sodipodi:nodetypes="ccsssssccssccccscc" />
    <path
       d="M 50.342447,51.791155 C 50.111499,51.51288 50.23158,45.397992 50.489769,44.2888 c 0.714965,-3.071465 1.791593,-5.134716 3.478215,-6.665659 1.28209,-1.16376 2.363968,-1.805824 4.479337,-2.658374 1.907439,-0.768742 2.289064,-0.761513 2.566118,0.04862 0.109079,0.318928 0.322841,0.749181 0.475019,0.956112 0.373497,0.507854 3.588045,3.227976 3.825624,3.237225 0.271173,0.01057 2.970849,1.32184 3.451528,1.67647 0.427082,0.31508 0.532267,0.836985 0.220637,1.094523 -0.528294,0.436591 -2.16485,0.66527 -5.479297,0.765618 -2.2338,0.06766 -3.558066,0.169125 -3.897999,0.298751 -1.313334,0.500814 -3.184511,2.007288 -4.01509,3.232531 -0.478079,0.705258 -1.439526,1.872128 -2.726956,3.309627 -0.43474,0.485414 -1.014381,1.23008 -1.288102,1.65481 -0.514793,0.798827 -0.891873,0.967222 -1.236356,0.552145 z"
       style="fill:#ff0000;fill-opacity:0.05;stroke-width:0.0389191"
       id="DELTA" />
    <path
       d="m 50.024581,76.893813 c -0.07163,-0.07162 -0.130231,-0.461486 -0.130231,-0.866351 0,-1.17196 -0.280006,-1.643238 -1.246118,-2.097365 -0.675142,-0.317355 -1.094333,-0.388592 -1.754344,-0.298127 -1.026781,0.140737 -0.973946,0.21006 -1.975629,-2.592254 -0.904799,-2.531276 -0.928239,-4.108022 -0.111836,-7.522554 0.69241,-2.895935 1.046152,-3.939188 1.555058,-4.586153 0.210357,-0.267427 0.576224,-1.074846 0.813038,-1.794265 0.549567,-1.669555 1.46389,-3.498318 2.584682,-5.16971 0.486036,-0.724807 0.803182,-1.268069 0.704775,-1.20725 -0.540639,0.334135 0.03148,-0.344257 1.748762,-2.073582 l 1.92769,-1.941215 h 0.995213 c 1.182618,0 3.069702,0.646196 3.723339,1.274988 0.309057,0.297307 0.551238,0.867819 0.716174,1.68711 0.137065,0.680846 0.403022,1.897204 0.591019,2.703016 0.242047,1.037508 0.336094,2.216365 0.322229,4.039123 -0.01742,2.290211 -0.08545,2.785583 -0.617022,4.493022 -0.328732,1.055901 -1.087698,2.797633 -1.687455,3.872503 -0.599501,1.074417 -1.312263,2.48093 -1.58391,3.125578 -0.271643,0.644651 -0.836668,1.867319 -1.255598,2.717037 -0.418932,0.849713 -0.761698,1.650214 -0.761698,1.778883 0,0.35029 -1.270003,1.988108 -2.61075,3.366871 -1.098112,1.129249 -1.617781,1.420307 -1.947388,1.090695 z"
       style="fill:#ff0000;fill-opacity:0.05;stroke-width:0.051686"
       id="TRICEPS" />
    <g
       id="g2904"
       style="fill:#ff0000;fill-opacity:0.05">
      <path
         style="fill:#ff0000;fill-opacity:0.05;stroke-width:0.202511"
         d="m 87.670413,157.45749 c -0.399471,-1.18202 -0.52208,-2.34155 -0.493284,-4.66407 0.01856,-1.48017 -0.06876,-3.238 -0.194081,-3.9063 -0.50836,-2.71561 -0.815292,-6.11071 -0.94289,-10.4294 -0.12879,-4.35803 -0.11239,-4.6669 0.377351,-7.08795 0.281652,-1.39229 0.701246,-3.76168 0.932542,-5.26534 0.762741,-4.95882 1.837693,-9.06981 2.71125,-10.36832 0.437068,-0.64979 0.494238,-0.67032 2.030889,-0.72812 1.865375,-0.07 3.603284,0.36347 4.246989,1.05975 1.010878,1.09341 1.933583,3.38982 2.40543,5.98649 0.44574,2.4532 0.458318,2.8628 0.408144,13.2695 -0.05621,11.57839 -0.08772,11.12008 1.065857,15.47506 0.2987,1.12784 0.3139,1.54998 0.11221,3.12238 -0.12827,1.00001 -0.28312,1.89908 -0.344203,1.99792 -0.29818,0.48243 -0.755719,-0.0566 -1.176458,-1.38526 -0.250988,-0.79269 -0.754531,-1.96245 -1.119005,-2.59953 -0.364453,-0.63702 -1.223115,-2.41109 -1.90817,-3.94238 l -1.245476,-2.78417 -0.558423,1.91732 c -0.610916,2.09771 -1.536212,3.84228 -2.867843,5.40724 -0.999998,1.17522 -1.889382,2.84349 -2.211511,4.14802 -0.175391,0.71042 -0.32787,0.92932 -0.682396,0.97968 -0.25114,0.0355 -0.49725,-0.0557 -0.546922,-0.20252 z"
         id="BICEPS_BEDR1"
         sodipodi:nodetypes="cccssscccsccscssccssscc" />
      <path
         d="m 73.197563,156.83607 c -0.854817,-2.20246 -1.208711,-2.88936 -2.217371,-4.30344 -1.860697,-2.60875 -2.589133,-3.95823 -2.951077,-5.46778 -0.186944,-0.77974 -0.388161,-1.58371 -0.447076,-1.78668 -0.06976,-0.24125 -0.54105,0.63526 -1.360417,2.53145 -0.689423,1.59521 -1.592476,3.42621 -2.006931,4.06899 -0.698207,1.08263 -1.563472,3.6315 -1.563472,4.60567 0,0.57564 -0.598198,0.7635 -0.940554,0.29532 -0.433131,-0.59232 -0.363485,-5.06378 0.115334,-7.40424 0.754993,-3.69077 1.051699,-9.0214 0.825673,-14.83462 -0.111901,-2.87841 -0.167524,-5.29344 -0.123523,-5.36657 0.04415,-0.073 0.190387,-1.63666 0.325452,-3.47441 0.398235,-5.4209 1.440779,-8.50596 3.427901,-10.14395 0.674798,-0.55617 0.819336,-0.58923 2.579385,-0.58923 2.70039,0 2.683498,-0.0122 3.659027,2.56242 0.875543,2.31057 1.355841,4.23204 1.687975,6.75317 0.203284,1.54305 0.721981,4.29925 1.42921,7.5942 0.658369,3.06708 0.492613,8.73418 -0.451642,15.44549 -0.230865,1.64073 -0.525443,4.44123 -0.654675,6.2234 -0.129263,1.78203 -0.30872,3.3541 -0.39884,3.49329 -0.258947,0.40006 -0.74101,0.29554 -0.934379,-0.20248 z"
         style="fill:#ff0000;fill-opacity:0.05;stroke-width:0.0535807"
         id="BICEPS_BEDR" />
    </g>
    <path
       d="m 69.173832,88.764288 c -0.06383,-0.103344 -0.09193,-0.490387 -0.06233,-0.860101 0.0825,-1.029734 -0.446123,-2.498036 -1.918569,-5.330068 -2.096521,-4.0323 -2.849947,-6.334469 -3.172758,-9.694518 -0.123873,-1.289438 -0.299356,-2.030713 -0.65314,-2.759045 -0.266053,-0.547748 -0.627385,-1.403317 -0.802938,-1.90127 -0.175541,-0.497952 -0.621761,-1.597974 -0.991572,-2.444491 -1.442973,-3.302945 -1.582174,-3.856246 -1.674767,-6.656823 -0.09191,-2.780196 -0.0061,-3.121134 0.785007,-3.121134 0.232917,0 1.139624,0.174548 2.014911,0.387885 1.769935,0.431396 4.972443,0.489649 7.823163,0.142299 1.204999,-0.146825 1.570966,-0.136473 1.749138,0.04949 0.123903,0.129337 0.7328,1.416662 1.35311,2.860723 0.620291,1.444058 1.651462,3.550991 2.291464,4.682072 1.689863,2.986498 2.213046,4.528752 2.350369,6.928659 0.129935,2.271312 0.212879,2.100656 -1.749982,3.601362 -2.855609,2.183281 -3.996693,3.717333 -4.341655,5.836842 -0.126431,0.776964 -0.08621,1.229374 0.197984,2.230572 0.196128,0.69076 0.404892,2.006676 0.463908,2.924258 l 0.107323,1.668336 -0.586506,0.547865 c -0.830248,0.77557 -2.898956,1.365269 -3.182143,0.907092 z"
       style="fill:#ff0000;fill-opacity:0.05;stroke-width:0.0479089"
       id="SHIROCH" />
    <path
       style="fill:#ff0000;fill-opacity:0.05;stroke-width:0.266757"
       d="m 93.082946,203.17487 c -0.151936,-0.24583 0.243113,-5.52521 0.437129,-5.8418 0.07546,-0.12311 0.209208,-2.6638 0.297248,-5.64598 0.175444,-5.9428 0.34828,-8.16955 0.697219,-8.98275 0.3111,-0.72503 1.596939,-5.26162 1.596864,-5.63393 -3.8e-5,-0.16433 -0.549685,-0.45267 -1.221444,-0.64075 -0.815952,-0.22845 -1.457934,-0.63842 -1.933991,-1.23507 -0.391934,-0.4912 -0.785925,-0.8931 -0.87553,-0.8931 -0.08961,-1e-5 -0.427243,0.83748 -0.750294,1.86108 -0.954905,3.02563 -2.540097,3.78992 -3.601665,1.73651 -1.600971,-3.09676 -1.620534,-3.19171 -1.620534,-7.86572 0,-4.3363 0.484479,-10.97974 0.93377,-12.80434 0.685678,-2.7846 2.487063,-6.50415 3.498903,-7.22465 0.985406,-0.70167 1.370169,-0.64503 2.072627,0.30509 0.727337,0.98378 0.98934,0.83961 2.359808,-1.2985 1.031852,-1.60981 1.634551,-1.98021 2.054909,-1.26288 0.156087,0.26636 0.693257,1.09326 1.193723,1.83756 1.172785,1.74421 1.663402,3.26463 1.906852,5.90945 0.10804,1.17373 0.31751,3.03437 0.46549,4.13474 0.39856,2.9638 0.19607,13.20307 -0.32443,16.40557 -0.25027,1.53977 -0.496585,5.14425 -0.582621,8.52563 -0.08808,3.46189 -0.269201,6.08061 -0.442801,6.40217 -0.305656,0.56616 -1.153919,3.75023 -1.499946,5.63023 -0.285565,1.55151 -1.885453,5.47628 -2.520984,6.18439 -0.520202,0.5796 -1.87244,0.83046 -2.140302,0.39705 z"
       id="GOLEN1"
       sodipodi:nodetypes="sssssssssssssssssssssssss" />
    <path
       d="m 66.501103,202.57756 c -0.680762,-0.68076 -1.600353,-2.7413 -1.600353,-3.58593 0,-0.33415 -0.317913,-1.07445 -0.706472,-1.64511 -1.325399,-1.94657 -1.547268,-2.75949 -1.739265,-6.37271 -0.295439,-5.55982 -0.941658,-13.48342 -1.319649,-16.18086 -0.617509,-4.40667 -0.327893,-16.34846 0.504195,-20.78969 0.126238,-0.67378 0.509328,-1.75415 0.851313,-2.40081 0.341981,-0.64666 0.970893,-1.86599 1.397576,-2.7096 0.426689,-0.84363 0.947542,-1.53385 1.157457,-1.53385 0.209915,0 0.67587,0.45015 1.035452,1.00033 0.359585,0.55019 1.059442,1.46896 1.555237,2.0417 l 0.901451,1.04134 0.583534,-1.24141 c 0.320945,-0.68278 0.73297,-1.24137 0.915614,-1.24129 0.446937,1.8e-4 2.605966,2.5354 3.166893,3.7187 1.423234,3.00238 1.559656,3.49672 1.844699,6.68471 0.865561,9.68047 0.861505,9.39212 0.202721,14.40489 -0.402071,3.05941 -1.53204,5.33514 -2.649056,5.33514 -0.48374,0 -2.366557,-2.47705 -2.366557,-3.11348 0,-0.1758 -0.124929,-0.64822 -0.27762,-1.04983 l -0.277619,-0.73019 -0.656699,0.96641 c -0.597066,0.87865 -0.801968,0.98286 -2.256573,1.14743 -0.879932,0.0995 -1.599877,0.28915 -1.599877,0.42133 0,0.1322 0.315733,0.98699 0.701627,1.89954 1.534909,3.62974 1.694688,4.6504 2.013623,12.86299 0.45144,11.62454 0.454813,11.45599 -0.231342,11.55367 -0.329443,0.0469 -0.830625,-0.16373 -1.15031,-0.48342 z"
       style="fill:#ff0000;fill-opacity:0.05;stroke-width:0.0705795"
       id="GOLEN" />
  </g>
</svg>
