<?xml version="1.0" encoding="UTF-8" standalone="no"?>
<!-- Created with Inkscape (http://www.inkscape.org/) -->

<svg
   width="607"
   height="848"
   viewBox="0 0 160.60208 224.36667"
   version="1.1"
   id="svg5"
   inkscape:version="1.1 (c4e8f9e, 2021-05-24)"
   sodipodi:docname="woman_back_muscles.svg"
   xmlns:inkscape="http://www.inkscape.org/namespaces/inkscape"
   xmlns:sodipodi="http://sodipodi.sourceforge.net/DTD/sodipodi-0.dtd"
   xmlns:xlink="http://www.w3.org/1999/xlink"
   xmlns="http://www.w3.org/2000/svg"
   xmlns:svg="http://www.w3.org/2000/svg">
  <sodipodi:namedview
     id="namedview7"
     pagecolor="#ffffff"
     bordercolor="#666666"
     borderopacity="1.0"
     inkscape:pageshadow="2"
     inkscape:pageopacity="0.0"
     inkscape:pagecheckerboard="0"
     inkscape:document-units="mm"
     showgrid="true"
     units="px"
     inkscape:lockguides="true"
     showguides="true"
     inkscape:guide-bbox="true"
     inkscape:zoom="0.67186106"
     inkscape:cx="-13.395627"
     inkscape:cy="552.19751"
     inkscape:window-width="1680"
     inkscape:window-height="912"
     inkscape:window-x="0"
     inkscape:window-y="25"
     inkscape:window-maximized="1"
     inkscape:current-layer="layer2"
     width="607px">
    <inkscape:grid
       type="xygrid"
       id="grid227" />
  </sodipodi:namedview>
  <defs
     id="defs2" />
  <g
     inkscape:groupmode="layer"
     id="layer3"
     inkscape:label="areas"
     style="display:inline"
     sodipodi:insensitive="true">
    <rect
       style="display:inline;fill:#ffff00;fill-opacity:0.0;stroke-width:0.271833"
       id="BUTT_AREA"
       width="60.854164"
       height="25.135414"
       x="49.741665"
       y="91.28125" />
    <rect
       style="display:inline;fill:#ffff00;fill-opacity:0.0;stroke-width:0.264583"
       id="TRICEPS_AREA"
       width="18.520832"
       height="34.395836"
       x="41.275005"
       y="52.916664" />
    <rect
       style="display:inline;fill:#ffff00;fill-opacity:0.0;stroke-width:0.264583"
       id="TRICEPS_AREA1"
       width="18.520832"
       height="34.395836"
       x="99.483406"
       y="52.91666" />
    <rect
       style="display:inline;fill:#ffff00;fill-opacity:0.0;stroke-width:0.135137"
       id="TRAPECIA_AREA"
       width="31.75"
       height="11.906251"
       x="64.029167"
       y="41.010418" />
    <rect
       style="fill:#ffff00;fill-opacity:0.0;stroke-width:0.260892"
       id="BICEPS_BEDR_AREA"
       width="62"
       height="39"
       x="49.5"
       y="118.00001" />
    <rect
       style="display:inline;fill:#ffff00;fill-opacity:0.0;stroke-width:0.289434"
       id="GOLEN_AREA"
       width="62"
       height="48"
       x="50.270832"
       y="166.68695" />
  </g>
  <g
     inkscape:label="muscles"
     inkscape:groupmode="layer"
     id="layer1"
     style="display:inline"
     sodipodi:insensitive="true">
    <path
       style="fill:#ff0000;fill-opacity:0.05;stroke-width:0.202793"
       d="m 98.467606,164.76514 c -0.445062,-1.36784 -1.49439,-3.574 -2.146132,-4.51214 -1.790276,-2.57697 -3.378648,-5.05016 -4.012761,-6.24809 l -0.677379,-1.27966 -0.347294,1.12245 c -0.19101,0.61735 -0.40641,1.43758 -0.478668,1.82275 -0.07226,0.38517 -0.463118,1.41411 -0.868581,2.28653 -0.40546,0.87244 -0.982376,2.49881 -1.282036,3.61417 -0.494475,1.84049 -0.588986,2.02793 -1.022472,2.02793 -0.546275,0 -0.508393,0.12433 -1.297581,-4.25865 -1.859158,-10.32531 -1.859445,-17.14287 -0.0012,-30.31749 0.947437,-6.7175 1.595928,-9.37762 2.588403,-10.61769 0.451099,-0.56364 0.524379,-0.58152 2.686069,-0.65512 3.070622,-0.10457 3.308832,-0.0187 4.025843,1.4512 0.322723,0.6616 0.843073,2.17657 1.156323,3.3666 0.708337,2.69095 0.774415,4.09414 0.878826,18.6621 0.04294,5.98892 0.127274,10.9686 0.187444,11.06596 0.06017,0.0974 0.153282,0.764 0.206909,1.48141 0.144788,1.93691 0.710527,6.70737 1.062246,8.95719 0.169781,1.08603 0.251565,2.06705 0.181743,2.18002 -0.202961,0.32839 -0.713694,0.23748 -0.839595,-0.14947 z"
       id="BICEPS_BEDR1"
       sodipodi:nodetypes="csscsssssscssssssssscc" />
    <path
       d="m 60.733951,164.65152 c -0.07138,-0.18598 -0.01466,-0.8476 0.126015,-1.47024 0.140687,-0.62265 0.338114,-2.09027 0.43873,-3.2614 0.100602,-1.17113 0.31837,-2.76811 0.483904,-3.54887 0.700006,-3.30163 0.912395,-6.14351 1.018291,-13.62548 0.05871,-4.14792 0.157859,-7.67489 0.220332,-7.83768 0.06248,-0.16282 0.01609,-0.35627 -0.103023,-0.4299 -0.474517,-0.29327 -0.111853,-7.62821 0.603451,-12.20486 0.267626,-1.71233 1.295201,-3.85559 2.030957,-4.23606 0.765932,-0.39608 6.051722,-0.43438 6.14557,-0.0446 0.03357,0.13943 0.270578,0.84667 0.526698,1.57165 1.235654,3.49772 1.904214,7.49881 2.843813,17.01916 0.444624,4.50507 0.538318,11.00167 0.196172,13.60254 -0.110042,0.83651 -0.286099,2.56131 -0.391231,3.83284 -0.105132,1.27154 -0.419373,3.23357 -0.69831,4.36005 -0.278929,1.12648 -0.624776,2.68694 -0.768551,3.46768 -0.222234,1.2068 -0.327736,1.429 -0.703969,1.48256 -0.572008,0.0815 -0.773374,-0.31039 -1.300797,-2.53114 -0.232611,-0.97943 -0.552143,-2.03064 -0.710075,-2.33605 -0.157933,-0.3054 -0.616347,-1.58519 -1.018702,-2.84397 -0.402346,-1.25879 -0.796464,-2.3595 -0.875805,-2.44604 -0.07935,-0.0865 -1.041048,1.19105 -2.137119,2.8391 -1.096071,1.64805 -2.400178,3.52806 -2.89801,4.17779 -0.497835,0.64973 -1.112872,1.74482 -1.366753,2.43351 -0.815377,2.21185 -0.895355,2.36753 -1.216244,2.36753 -0.17357,0 -0.373973,-0.15218 -0.445344,-0.33818 z"
       style="fill:#ff0000;fill-opacity:0.05;stroke-width:0.0536556"
       id="BICEPS_BEDR" />
    <path
       style="fill:#ff0000;fill-opacity:0.05;stroke-width:0.183019"
       d="m 106.87824,53.534769 c -0.24773,-0.61531 -0.86613,-1.371146 -2.80387,-3.427063 -1.67397,-1.776085 -2.08625,-2.344526 -3.00254,-4.139952 -1.135368,-2.224668 -2.610746,-4.757766 -2.873434,-4.933421 -0.165232,-0.110483 -3.996596,-0.970577 -5.452427,-1.224002 -0.642501,-0.111842 -0.835886,-0.228548 -0.879537,-0.530789 -0.04357,-0.301785 0.163621,-0.513061 0.937367,-0.95575 0.546328,-0.312581 1.132646,-0.568326 1.302927,-0.568326 0.170286,0 1.107378,-0.321593 2.082432,-0.714652 1.500378,-0.604822 2.038022,-0.728146 3.498367,-0.802462 1.601685,-0.0815 1.750575,-0.122168 2.074225,-0.566474 0.47838,-0.656713 0.71518,-0.604655 1.36071,0.299163 1.18306,1.656434 1.80322,3.325684 2.73674,7.366473 0.61949,2.681548 1.52822,7.915845 1.52822,8.802531 0,0.244665 0.0954,0.597533 0.21192,0.784153 0.25775,0.41275 0.0879,0.936849 -0.30357,0.936849 -0.1574,0 -0.34529,-0.146823 -0.41753,-0.326278 z"
       id="DELTA1"
       sodipodi:nodetypes="cssssssssssssscsc" />
    <path
       style="fill:#ff0000;fill-opacity:0.05;stroke-width:0.20517"
       d="m 95.529666,204.12858 c -0.20402,-0.20401 -0.16299,-2.32312 0.06092,-3.14594 0.107479,-0.39496 0.338143,-1.89022 0.512596,-3.32281 0.174459,-1.43259 0.409193,-2.84669 0.521643,-3.14245 0.112443,-0.29575 0.471996,-1.53634 0.799012,-2.75688 l 0.594561,-2.21914 -1.178219,-0.13329 c -1.037264,-0.1174 -1.343003,-0.26924 -2.555726,-1.26954 -0.757632,-0.62494 -1.428922,-1.2702 -1.491756,-1.43394 -0.06979,-0.18191 -0.433217,0.34206 -0.934333,1.34717 -0.593766,1.19091 -1.054248,1.81706 -1.66853,2.2688 -1.263897,0.92948 -1.581466,0.78372 -2.026385,-0.93005 -1.417453,-5.45985 -1.865268,-11.1849 -1.291918,-16.51624 0.188103,-1.74909 0.422581,-4.24254 0.521055,-5.54105 0.144298,-1.90256 0.327078,-2.77883 0.941536,-4.51374 0.419363,-1.18407 0.900875,-2.31443 1.070036,-2.51191 0.391441,-0.45697 0.783919,-0.45762 1.039061,-9.6e-4 0.10999,0.19654 0.233821,0.31196 0.275188,0.25647 0.04135,-0.0554 0.3371,-0.51636 0.657181,-1.02414 0.935278,-1.48379 1.348116,-1.84654 2.101595,-1.84654 0.597156,0 0.794377,0.1562 1.619124,1.28231 3.34745,4.57065 4.674847,7.03314 5.305323,9.84207 0.0689,0.30696 0.13091,4.78481 0.13779,9.95078 0.0118,8.90987 -0.01,9.47176 -0.4149,10.93144 -0.374242,1.3474 -0.762909,3.27823 -1.94108,9.64302 -0.591165,3.19364 -1.895132,5.54594 -2.653765,4.78731 z"
       id="GOLEN1"
       sodipodi:nodetypes="cssssccsssssssssccssssccscc" />
    <path
       style="fill:#ff0000;fill-opacity:0.05;stroke-width:0.191047"
       d="m 90.159539,90.051016 c -0.69957,-0.345656 -1.626892,-2.383698 -1.991575,-4.37702 -0.403881,-2.20757 -0.779659,-3.118849 -2.192,-5.315742 -1.948693,-3.031167 -3.800656,-6.176794 -4.436504,-7.535569 -0.550965,-1.177389 -0.593661,-1.40493 -0.498218,-2.655218 0.253904,-3.325986 1.661435,-7.444951 3.68058,-10.770748 0.46359,-0.763601 1.272923,-2.300024 1.798511,-3.414271 l 0.955611,-2.025903 1.977107,0.134759 c 2.347776,0.160025 5.059247,-0.131004 6.766423,-0.726255 1.405514,-0.490067 1.573293,-0.400101 1.778834,0.953866 0.203522,1.340733 -0.117287,5.943991 -0.583168,8.3676 -0.476253,2.477555 -1.622534,6.874 -2.664908,10.220948 -0.848305,2.723827 -1.026721,3.596364 -1.523541,7.450791 -0.507595,3.938041 -1.540051,9.205457 -1.881686,9.600055 -0.341298,0.394208 -0.543299,0.410006 -1.185466,0.09269 z"
       id="SHIROCH1"
       sodipodi:nodetypes="ssssssscsssssssss" />
    <path
       style="fill:#ff0000;fill-opacity:0.05;stroke-width:0.1905"
       d="m 79.754427,75.913449 c -0.712099,-0.760108 -0.995925,-1.531648 -0.998628,-2.714625 -0.008,-3.494716 -1.845464,-8.338302 -4.62519,-12.191999 -0.302303,-0.4191 -0.680406,-1.062037 -0.840229,-1.42875 -0.436573,-1.001711 -3.193936,-9.209445 -3.679879,-10.953749 -0.507577,-1.821964 -2.381673,-6.87474 -2.770809,-7.470422 -0.381901,-0.584603 -0.345026,-1.003649 0.133104,-1.512595 l 0.408732,-0.435075 -0.456357,-0.173744 c -0.250996,-0.09556 -1.570781,-0.623552 -2.932856,-1.17332 -1.362075,-0.549769 -2.885982,-1.153452 -3.38646,-1.34152 -1.386272,-0.520927 -2.131936,-1.015305 -2.196302,-1.456155 -0.05234,-0.358478 0.06384,-0.411708 1.143,-0.52367 0.660694,-0.06855 1.972787,-0.244533 2.915762,-0.391082 0.942975,-0.146548 2.314575,-0.324397 3.048,-0.39522 0.733425,-0.07082 1.879488,-0.332433 2.546806,-0.581357 1.375408,-0.513056 1.424662,-0.523349 1.264543,-0.26427 -0.06665,0.107836 0.0095,0.140012 0.178163,0.07529 0.162002,-0.06217 0.24712,-0.189772 0.189151,-0.283568 -0.05797,-0.0938 0.04405,-0.170538 0.226699,-0.170538 0.573885,0 1.95837,-0.77297 2.332447,-1.302225 0.197295,-0.279139 0.755967,-1.300481 1.241492,-2.26965 0.485525,-0.969169 0.95593,-1.762125 1.045345,-1.762125 0.08942,0 0.400281,-0.529684 0.690814,-1.177076 0.508944,-1.134079 0.527115,-1.283527 0.497443,-4.091178 l -0.0308,-2.914102 0.694837,-0.290322 c 0.52258,-0.218347 1.437808,-0.290321 3.691754,-0.290321 2.917117,0 3.01034,0.01244 3.500987,0.467154 0.581164,0.538604 0.560291,0.411399 0.582416,3.549403 0.01587,2.250857 0.04722,2.442877 0.513279,3.14325 0.787097,1.182823 1.592403,2.637919 1.546207,2.793817 -0.02328,0.07858 0.04845,0.142875 0.159408,0.142875 0.110959,0 0.146441,0.08948 0.07885,0.198845 -0.06759,0.109365 -0.01929,0.323677 0.107332,0.47625 0.126625,0.152573 0.155436,0.278718 0.06403,0.280322 -0.09141,0.0016 -0.07947,0.0659 0.02653,0.142875 0.106,0.07698 0.48455,0.568583 0.841225,1.092458 0.996256,1.463277 1.521143,1.796204 3.590411,2.277333 3.124486,0.726481 6.149016,1.226562 7.993223,1.321616 1.212403,0.06249 1.937623,0.196138 2.333613,0.430056 0.316,0.186665 0.57454,0.393614 0.57454,0.459886 0,0.145843 -1.14598,0.642257 -2.190745,0.948986 -0.419091,0.12304 -1.026146,0.374331 -1.349003,0.55842 -0.322856,0.18409 -0.90473,0.439564 -1.293053,0.567723 -0.388322,0.128157 -1.53863,0.609895 -2.556239,1.070526 l -1.850197,0.837512 0.05626,0.851209 c 0.04375,0.661894 -0.346148,2.071234 -1.753047,6.336721 -0.995119,3.01703 -1.948718,6.042723 -2.119109,6.72376 -0.663944,2.653722 -2.213204,6.35131 -3.663711,8.7441 -1.465639,2.417749 -2.745249,5.11717 -2.988959,6.305399 -0.07521,0.366712 -0.344207,1.196898 -0.597765,1.844859 -0.338143,0.864119 -0.492962,1.727244 -0.580893,3.2385 -0.07779,1.337064 -0.2256,2.244303 -0.421024,2.584265 -0.36448,0.634047 -0.424634,0.640175 -0.935138,0.09525 z"
       id="TRAPECIA" />
    <path
       style="fill:#ff0000;fill-opacity:0.05;stroke-width:0.19066"
       d="m 105.56414,75.47053 c -0.43851,-0.397398 -0.6877,-0.916609 -1.02943,-2.144933 -0.55564,-1.997228 -1.45239,-4.412362 -2.13723,-5.756003 -0.28383,-0.556846 -0.92294,-2.127808 -1.42027,-3.49103 -0.49736,-1.363224 -1.082486,-2.907572 -1.300308,-3.431889 -1.189671,-2.863635 -2.525233,-6.805644 -2.61615,-7.721752 -0.06216,-0.626475 0.01608,-1.624301 0.194267,-2.478587 0.328633,-1.575241 1.07859,-4.15456 1.316587,-4.528186 0.09704,-0.152333 0.618658,-0.238325 1.445644,-0.238325 1.48118,0 1.54051,0.04294 2.50313,1.811275 0.34867,0.640527 1.39359,1.941067 2.37438,2.955236 0.9634,0.996203 2.00872,2.154465 2.3229,2.573918 0.57456,0.767074 1.61641,3.204336 2.43931,5.706416 0.24383,0.741411 1.06285,3.149765 1.82,5.351894 1.329,3.865231 1.38008,4.080691 1.47535,6.222482 0.13299,2.989622 0.0242,3.480803 -0.90768,4.097484 -0.42218,0.279383 -1.3233,0.603964 -2.07377,0.746958 -0.72994,0.139081 -1.58668,0.387086 -1.9039,0.551119 -0.9018,0.466342 -1.83144,0.382372 -2.50283,-0.226077 z"
       id="TRICEPS1"
       sodipodi:nodetypes="ssscsscsssssscsssss" />
    <path
       style="fill:#ff0000;fill-opacity:0.05;stroke-width:0.190547"
       d="m 86.410462,117.91525 c -1.626905,-0.35387 -3.054076,-1.3226 -4.263769,-2.89413 -0.578492,-0.75152 -1.042942,-1.52832 -1.032113,-1.7262 0.0108,-0.19789 -0.122227,-0.82552 -0.295678,-1.39474 -0.173453,-0.56922 -0.315366,-1.31444 -0.315366,-1.65603 0,-1.26678 -0.331468,-0.77216 -0.452128,0.67467 -0.176196,2.11276 -0.433179,2.6977 -1.936703,4.4083 -1.106123,1.25846 -1.532633,1.5971 -2.564141,2.03588 -1.159942,0.49341 -1.404249,0.52562 -3.906199,0.51502 -2.300672,-0.01 -2.839743,-0.0729 -3.90742,-0.45737 -2.376397,-0.85585 -4.522969,-3.07523 -5.628427,-5.81934 -0.515841,-1.28049 -0.537813,-1.46717 -0.549502,-4.66839 -0.0096,-2.61864 0.06573,-3.68228 0.350669,-4.9542 0.528756,-2.360207 1.843752,-4.856378 3.714101,-7.050198 0.848805,-0.995602 1.942499,-2.303226 2.430437,-2.905828 0.487933,-0.602602 1.033092,-1.095639 1.211465,-1.095639 0.178373,0 0.657653,0.267116 1.065068,0.593593 0.407409,0.326471 1.383842,1.029489 2.16984,1.562257 2.057434,1.394565 4.799262,4.127446 6.11609,6.096131 0.618563,0.924764 1.1266,1.782954 1.12897,1.907084 0.0021,0.12414 0.281041,-0.20613 0.619276,-0.73394 1.323665,-2.065528 3.384086,-4.627794 4.744443,-5.900021 1.407924,-1.31672 4.096647,-3.1317 5.303834,-3.580262 0.587322,-0.21824 0.642485,-0.199876 1.024288,0.340979 0.221939,0.314399 0.973348,1.128981 1.669786,1.810189 1.735889,1.697906 2.644546,2.991599 3.799654,5.409714 1.422446,2.977751 1.691741,4.193461 1.692954,7.642691 9.34e-4,3.03044 -0.136565,3.83556 -1.026013,6.0022 -0.864192,2.10513 -1.919467,3.3951 -3.680952,4.49963 -2.385002,1.49548 -4.785137,1.92466 -7.482464,1.33795 z"
       id="BUTT" />
    <path
       d="m 53.33603,52.640243 c -0.234024,-0.234016 -0.118835,-1.831737 0.328631,-4.558374 0.522933,-3.186464 0.737293,-4.132304 1.614572,-7.124268 0.823468,-2.808417 1.385972,-4.068345 2.236814,-5.010126 0.797161,-0.882359 1.033629,-0.925643 1.506974,-0.275844 0.322212,0.442327 0.488447,0.48901 2.165726,0.608234 1.04885,0.07454 2.048798,0.250053 2.365785,0.415214 0.301977,0.157345 1.060545,0.416433 1.685703,0.575749 1.148485,0.292685 2.950929,1.195991 3.352884,1.680316 0.417563,0.503131 0.05516,0.774014 -1.319551,0.986327 -0.736888,0.113807 -1.929794,0.369302 -2.650887,0.567772 -0.721098,0.198466 -1.567854,0.360846 -1.881682,0.360846 -0.376838,0 -0.61032,0.108757 -0.687594,0.320284 -0.06436,0.176151 -0.68431,1.30031 -1.377685,2.498127 -0.693375,1.197814 -1.471962,2.597901 -1.730195,3.111301 -0.513239,1.020397 -1.789208,2.582011 -3.790921,4.639577 -1.234612,1.269061 -1.547252,1.476193 -1.818574,1.204865 z"
       style="fill:#ff0000;fill-opacity:0.05;stroke-width:0.0484238"
       id="DELTA" />
    <path
       d="m 51.131069,75.608918 c -0.524312,-0.206965 -1.265053,-0.376383 -1.64609,-0.376465 -0.55989,-1.25e-4 -0.815919,-0.137687 -1.334627,-0.717077 -0.353001,-0.394305 -0.809932,-1.034901 -1.015388,-1.423545 -0.341181,-0.645367 -0.353367,-0.818769 -0.140611,-1.999996 0.128125,-0.711351 0.362657,-2.022639 0.521177,-2.913978 0.324141,-1.822627 1.265102,-4.807289 3.065533,-9.723686 1.616324,-4.413658 1.988389,-5.115365 3.686477,-6.952613 1.525199,-1.650187 2.901402,-3.418697 3.831722,-4.924007 l 0.564653,-0.913643 1.457341,0.05566 1.457338,0.05566 0.259922,0.953302 c 0.142954,0.524316 0.485102,1.713224 0.760317,2.642018 0.841499,2.839833 0.603763,3.911848 -2.60636,11.752849 -1.704467,4.163296 -2.760748,6.960391 -4.284004,11.344302 l -1.192464,3.431889 -1.215813,0.04279 c -0.845008,0.02978 -1.506562,-0.07196 -2.169123,-0.333504 z"
       style="fill:#ff0000;fill-opacity:0.05;stroke-width:0.0504455"
       id="TRICEPS" />
    <path
       d="m 68.845954,89.871095 c -0.371205,-0.410173 -0.433729,-0.817677 -0.848053,-5.527104 -0.115554,-1.313442 -0.325591,-2.774944 -0.466744,-3.247776 -0.356499,-1.194221 -1.835499,-6.422692 -2.756135,-9.743342 -1.183087,-4.267296 -2.302269,-8.97342 -2.504527,-10.531419 -0.283192,-2.181485 -0.246828,-7.09153 0.05559,-7.505105 0.23876,-0.326533 0.346086,-0.318302 2.331582,0.178845 1.933732,0.484185 2.303997,0.516022 5.222365,0.449056 l 3.141072,-0.07208 0.54228,1.337323 c 0.298259,0.735526 0.889026,1.982102 1.312831,2.770166 2.966111,5.515525 4.002828,8.54693 4.00835,11.720584 0.0032,1.71609 -0.05291,2.011368 -0.635093,3.354789 -0.351102,0.810194 -1.067678,2.112693 -1.592395,2.894434 -2.005621,2.988074 -3.813415,6.790999 -4.444579,9.349745 -0.426334,1.72837 -0.953664,2.97814 -1.737016,4.116705 -0.644028,0.936062 -1.083292,1.058754 -1.629524,0.455179 z"
       style="fill:#ff0000;fill-opacity:0.05;stroke-width:0.0505479"
       id="SHIROCH" />
    <path
       d="m 63.709292,203.96248 c -1.168697,-2.79709 -2.340952,-7.39271 -3.219845,-12.62284 l -0.672314,-4.00082 -0.01064,-9.43785 -0.01066,-9.43784 0.563423,-1.74396 c 0.540088,-1.67173 1.065286,-2.60106 2.970141,-5.25557 0.476493,-0.66403 1.152705,-1.62277 1.50269,-2.13057 0.876136,-1.27117 1.35958,-1.64136 2.143567,-1.64136 0.521364,0 0.834792,0.18075 1.401863,0.80841 0.401701,0.44464 0.876173,1.09041 1.054386,1.43503 0.281305,0.54399 0.375314,0.59457 0.713046,0.38366 0.474446,-0.29631 1.037852,0.076 1.037852,0.68586 0,0.21469 0.323141,1.03203 0.718095,1.8163 0.620697,1.23254 0.718979,1.6284 0.724599,2.91857 0.0034,0.82093 0.14764,2.46203 0.320151,3.64689 0.172508,1.18485 0.365024,4.37013 0.427818,7.07839 0.112292,4.8431 0.103526,4.98653 -0.532596,8.71975 -0.94348,5.53698 -0.849794,5.22148 -1.57163,5.29297 -1.270029,0.1258 -2.929816,-1.66028 -3.440922,-3.70273 -0.140409,-0.5611 -0.149548,-0.55554 -1.752142,1.06656 -1.4928,1.51097 -1.688209,1.64085 -2.663354,1.77021 -0.578795,0.0768 -1.052357,0.16829 -1.052357,0.20333 0,0.035 0.274789,1.18902 0.610643,2.5644 0.84406,3.45655 1.643422,8.36466 1.700837,10.44322 0.04135,1.49739 -5.29e-4,1.74708 -0.302699,1.80866 -0.2413,0.0492 -0.447141,-0.15942 -0.659919,-0.66867 z"
       style="fill:#ff0000;fill-opacity:0.05;stroke-width:0.0542846"
       id="GOLEN" />
  </g>
</svg>
