<?xml version="1.0" encoding="UTF-8" standalone="no"?>
<!-- Created with Inkscape (http://www.inkscape.org/) -->

<svg
   width="610"
   height="820"
   viewBox="0 0 161.39584 216.95834"
   version="1.1"
   id="svg5"
   inkscape:version="1.1 (c4e8f9e, 2021-05-24)"
   sodipodi:docname="body3.svg"
   shape-rendering="crispEdges"
   xmlns:inkscape="http://www.inkscape.org/namespaces/inkscape"
   xmlns:sodipodi="http://sodipodi.sourceforge.net/DTD/sodipodi-0.dtd"
   xmlns="http://www.w3.org/2000/svg"
   xmlns:svg="http://www.w3.org/2000/svg">
  <sodipodi:namedview
     id="namedview7"
     pagecolor="#ffffff"
     bordercolor="#666666"
     borderopacity="1.0"
     inkscape:pageshadow="2"
     inkscape:pageopacity="0.0"
     inkscape:pagecheckerboard="0"
     inkscape:document-units="px"
     showgrid="false"
     inkscape:zoom="1.0048494"
     inkscape:cx="238.34418"
     inkscape:cy="177.14098"
     inkscape:window-width="1312"
     inkscape:window-height="912"
     inkscape:window-x="0"
     inkscape:window-y="26"
     inkscape:window-maximized="0"
     inkscape:current-layer="layer3"
     units="px"
     width="610mm" />
  <defs
     id="defs2" />
  <g
     inkscape:groupmode="layer"
     id="layer3"
     inkscape:label="l1"
     style="display:inline">
    <path
       style="fill:#0a0a0a;stroke-width:0.264583"
       d="m 49.974031,57.822925 c -0.08134,-0.211982 -0.02527,-3.218305 0.124642,-6.680732 0.21798,-5.03514 0.375129,-6.589163 0.785032,-7.763249 1.409581,-4.037499 3.203994,-6.059792 7.051946,-7.947541 3.105959,-1.523738 3.23189,-1.537036 5.002972,-0.528428 1.314981,0.748868 4.044201,1.522275 7.572833,2.14599 0.945885,0.167198 1.775105,0.358725 1.842727,0.42562 0.405443,0.401142 -0.736547,1.08971 -2.791163,1.682945 -1.297372,0.374603 -2.985646,1.024126 -3.75171,1.44339 -1.684179,0.921745 -6.012789,5.313474 -6.583583,6.679584 -0.223162,0.534098 -1.470165,2.110028 -2.771124,3.502064 -1.300948,1.39204 -3.148057,3.632304 -4.104666,4.978366 -1.749817,2.462184 -2.105859,2.770929 -2.377906,2.061991 z m 61.208319,-1.003649 c -0.49726,-0.618467 -1.3877,-1.83886 -1.97875,-2.711988 -0.59106,-0.873119 -1.92788,-2.420932 -2.97071,-3.43958 -1.04283,-1.018644 -2.18543,-2.415654 -2.5391,-3.104463 -0.35368,-0.688797 -1.8029,-2.464477 -3.2205,-3.945943 -2.848537,-2.976872 -5.146637,-4.334042 -8.391998,-4.956 -1.652574,-0.316712 -2.559121,-0.892435 -2.110951,-1.340604 0.139649,-0.139658 1.146577,-0.388139 2.237618,-0.552194 3.049365,-0.45852 6.087105,-1.2861 7.463177,-2.033214 1.572754,-0.853898 2.659754,-0.742183 5.388794,0.553831 3.34879,1.590336 5.74504,4.555657 6.8683,8.49942 0.54086,1.89897 0.91545,14.155208 0.43262,14.155208 -0.15091,0 -0.68123,-0.506018 -1.1785,-1.124473 z"
       id="DELTA" />
    <path
       style="display:inline;fill:#040404;stroke-width:0.264583"
       d="m 87.802773,58.304416 c -3.432847,-1.300035 -8.130892,-1.311637 -12.462629,-0.03075 -3.023754,0.894107 -7.548338,0.615667 -9.893356,-0.608819 -2.079376,-1.085784 -3.333607,-3.449535 -4.125061,-7.774186 -0.421222,-2.301645 -0.70626,-3.235365 -1.06893,-3.50157 -0.743407,-0.545661 -0.605911,-1.281269 0.579599,-3.100867 1.335233,-2.049391 3.594212,-4.213688 5.077217,-4.864418 3.101197,-1.36077 8.273968,-1.708004 11.593614,-0.778229 3.212925,0.899887 4.560779,0.925928 7.143922,0.138014 5.845545,-1.782998 12.805913,-0.190087 16.412471,3.756068 1.27815,1.398487 2.35488,3.132323 2.35488,3.792 0,0.176234 -0.15805,0.508403 -0.35123,0.738143 -0.47905,0.569722 -0.88466,2.118818 -1.23118,4.702096 -0.67545,5.035513 -1.16716,5.939962 -3.968284,7.299344 -1.601631,0.777277 -1.953006,0.842618 -4.90035,0.911256 -2.943128,0.06855 -3.320016,0.01905 -5.160683,-0.67805 z"
       id="CHEST" />
    <path
       style="display:inline;fill:#1b1b1b;stroke-width:0.264583"
       d="m 78.914247,38.70849 c -0.507135,-0.698465 -1.061596,-1.537838 -1.232146,-1.865265 -0.170559,-0.327419 -0.416685,-0.595312 -0.546968,-0.595312 -0.130281,0 -0.274987,0.267893 -0.321577,0.595312 -0.07177,0.504278 -0.226306,0.584602 -1.010595,0.525264 -1.459013,-0.1104 -1.58664,-0.22575 -1.596647,-1.443 -0.0052,-0.623025 -0.198995,-2.263876 -0.430829,-3.646321 -0.495054,-2.952039 -0.755798,-8.699483 -0.410339,-9.044933 0.225472,-0.22548 3.004986,3.134588 3.76002,4.545376 0.351547,0.656886 1.707256,5.523285 2.262172,8.120266 0.374258,1.751473 1.028454,2.993872 1.576456,2.993872 0.518941,0 1.33839,-2.009093 1.834552,-4.497914 0.747284,-3.748419 1.431436,-6.102946 2.109555,-7.260069 1.030359,-1.758173 2.783536,-3.984728 3.137551,-3.984728 0.484365,0 0.364485,4.986705 -0.238276,9.911648 l -0.500676,4.090808 -0.916501,0.187439 c -1.253535,0.256381 -1.412267,0.08642 -1.238761,-1.326338 0.17013,-1.385332 0.209055,-1.425861 -1.62162,1.688529 l -1.244204,2.116664 -1.224555,0.07933 c -1.190048,0.07709 -1.25055,0.04358 -2.146612,-1.190625 z"
       id="NECK" />
    <path
       style="display:inline;fill:#090909;stroke-width:0.264583"
       d="m 51.622285,75.514742 c -1.35417,-1.514303 -1.649596,-1.722128 -2.248959,-1.582094 -2.455431,0.573691 -2.646699,0.546126 -3.059054,-0.440791 -2.032029,-4.863322 -1.530467,-10.335046 1.516155,-16.540298 1.152869,-2.348129 1.778947,-2.790436 1.778947,-1.256768 0,1.072449 0.480076,1.225569 1.036913,0.330729 1.384273,-2.224532 5.792026,-6.837061 7.295896,-7.634867 0.996598,-0.52869 1.200785,-0.558726 1.591882,-0.234148 0.400724,0.33257 0.429516,0.797422 0.269573,4.352189 -0.324879,7.22067 -0.528939,7.8675 -4.750509,15.058462 l -2.310022,3.934863 0.852427,0.879485 c 0.816562,0.842484 0.846278,0.947288 0.706284,2.491163 -0.131882,1.454402 -0.504608,2.385915 -0.954527,2.385518 -0.09133,-8.2e-5 -0.867577,-0.784627 -1.725006,-1.743443 z m 56.098335,1.535957 c -0.0706,-0.114197 -0.21171,-0.944565 -0.31361,-1.845254 -0.17818,-1.57492 -0.1536,-1.673694 0.64188,-2.579696 0.45493,-0.518144 0.82715,-1.105972 0.82715,-1.30629 0,-0.200308 -1.05754,-1.95234 -2.35009,-3.893392 -3.69585,-5.550128 -4.17282,-6.549766 -4.52441,-9.482318 -0.44581,-3.71838 -0.26727,-9.89031 0.2892,-9.997035 1.1017,-0.211296 5.77797,3.947311 8.04051,7.150426 1.19255,1.688301 1.71979,1.912088 1.71979,0.729945 0,-1.538327 0.71281,-0.784177 2.18822,2.315099 1.75796,3.692814 2.3097,5.678213 2.3097,8.311254 0,1.739588 -0.99366,7.147687 -1.44851,7.883647 -0.24734,0.4002 -1.33247,0.337576 -2.4626,-0.14214 l -0.98368,-0.417547 -1.60432,1.740467 c -1.52884,1.658593 -2.04257,1.99667 -2.32923,1.532834 z"
       id="BICEPS" />
    <path
       style="display:inline;fill:#0f0f0f;stroke-width:0.264583"
       d="m 37.975862,97.379862 c -0.08545,-0.138271 0.919551,-2.321041 2.233342,-4.850617 2.2293,-4.292296 2.701304,-5.481323 2.175891,-5.481323 -0.117059,0 -0.861195,0.907206 -1.653643,2.016014 -1.659115,2.321452 -3.388148,4.333981 -3.723481,4.333981 -0.397492,0 -0.252646,-2.614808 0.276653,-4.994333 0.279149,-1.254937 0.700725,-3.353274 0.936824,-4.662961 0.608092,-3.373163 1.141222,-5.521328 1.937107,-7.805204 0.820732,-2.355196 4.030787,-8.777928 4.45797,-8.919572 0.185917,-0.06165 0.370607,0.480023 0.488828,1.433679 0.104513,0.843021 0.364072,1.949482 0.576795,2.458807 0.459181,1.099373 1.148993,4.54473 1.149061,5.739075 6.6e-5,1.322409 0.374947,1.264912 2.277817,-0.349343 l 1.774029,-1.50495 1.016804,1.090073 c 0.559244,0.599543 1.016804,1.194091 1.016804,1.321223 0,0.127125 -0.608578,1.233067 -1.352407,2.457638 -0.74382,1.224569 -1.699882,2.914769 -2.124586,3.755991 -0.4475,0.886397 -1.743554,2.555124 -3.082417,3.968753 -2.779215,2.934422 -3.400973,3.721261 -5.84754,7.400184 -1.827051,2.747346 -2.201551,3.130566 -2.533851,2.592885 z M 122.61792,96.38867 c -1.36716,-2.332877 -4.16997,-6.030842 -6.077,-8.017839 -2.30867,-2.405496 -2.95476,-3.362714 -5.30736,-7.863284 -1.75978,-3.366495 -1.81347,-3.524192 -1.43148,-4.204711 0.87282,-1.554938 1.32326,-1.568228 3.16106,-0.09328 1.77471,1.424286 2.22428,1.520639 2.32786,0.498893 0.15924,-1.570758 0.68446,-4.446421 1.01101,-5.535528 0.19635,-0.654847 0.43744,-1.939388 0.53575,-2.854537 0.0983,-0.915157 0.29553,-1.624989 0.43827,-1.577409 0.41916,0.139718 4.13324,7.567126 4.72629,9.451615 0.76762,2.439202 1.29962,4.444514 1.54623,5.82825 0.11671,0.654841 0.52432,2.718285 0.90579,4.585433 0.38146,1.867146 0.69358,4.099568 0.69358,4.960935 0,2.572441 -0.46328,2.232772 -4.31289,-3.162181 -1.51631,-2.124995 -2.24752,-2.726198 -1.89196,-1.555543 0.44653,1.47008 1.80981,4.400219 2.61235,5.614762 1.25704,1.902376 2.57958,4.6149 2.39538,4.912943 -0.29703,0.480592 -0.60639,0.251158 -1.33288,-0.988515 z"
       id="PREDPLECHIA" />
    <path
       style="display:inline;fill:#696969;stroke-width:0.264583"
       d="m 79.87496,112.12882 c -0.234355,-0.18829 -0.8557,-1.05673 -1.380782,-1.92986 -4.744177,-7.88879 -6.809962,-14.137337 -5.204595,-15.742712 0.564253,-0.564248 0.302091,-1.576438 -0.129608,-2.00814 -0.144037,-0.144044 -0.565852,-1.269188 -0.93735,-2.500312 -0.569506,-1.887292 0.420629,-2.618264 -0.105704,-4.137301 -1.05427,-3.042703 -0.723773,-2.170536 -1.05427,-3.042703 -0.757499,-1.999223 -0.352311,-5.268481 -0.0627,-7.20621 0.18918,-1.26586 0.16995,-2.112002 -0.0711,-3.128095 -0.232125,-0.978562 -0.250942,-1.598676 -0.0633,-2.084798 0.179303,-0.464452 0.179752,-1.073346 0.0016,-1.852081 -0.146161,-0.638082 -0.18924,-1.993587 -0.09574,-3.012231 0.0935,-1.018651 0.211183,-2.485792 0.261509,-3.260325 0.129397,-1.991339 0.904373,-2.538254 5.105813,-3.603263 2.852378,-0.723045 4.161097,-0.842843 4.431292,-0.405651 0.09225,0.149257 0.236305,0.935805 0.320117,1.747867 0.168659,1.634175 0.436327,1.448609 0.717209,-0.497213 0.233566,-1.618073 0.749834,-1.928609 2.560659,-1.540259 2.055283,0.440782 6.004793,1.887741 6.377098,2.336353 0.95898,1.155496 1.184664,3.823245 1.001409,11.837072 -0.03998,1.746256 -0.05633,4.331235 -0.03645,5.744414 0.02737,1.942793 0.117755,2.859683 -0.0754,3.968753 -0.510601,2.931766 -0.210743,2.487009 -0.570899,5.112219 -0.309451,2.255557 -0.609015,6.100275 -1.434428,5.41524 -0.163568,3.686408 0.308213,4.724588 0.1944,5.805173 -0.178118,1.327957 -1.4067,4.043043 -3.65868,8.085453 -0.972825,1.74625 -2.109375,3.82984 -2.525686,4.63021 -0.731586,1.40651 -0.796761,1.45781 -1.94754,1.53299 -0.691126,0.0451 -1.36938,-0.0658 -1.616715,-0.26459 z"
       id="PRESS"
       sodipodi:nodetypes="cssssscssscssssssssccssccssscc" />
    <path
       style="display:inline;fill:#656565;stroke-width:0.264583"
       d="m 71.002361,95.39009 c -0.612392,-0.967989 -1.133425,-1.369351 -2.868562,-2.209747 -2.660394,-1.288524 -4.101722,-2.766325 -4.110946,-4.214956 -0.0038,-0.545288 -0.118816,-1.467676 -0.256328,-2.049759 -0.175771,-0.744051 -0.118073,-2.249646 0.19431,-5.070007 0.38073,-3.437535 0.398235,-4.472604 0.122309,-7.232303 -0.290714,-2.907684 -0.278662,-3.294 0.124074,-3.975788 0.42105,-0.712762 0.418716,-0.815835 -0.04148,-1.836286 l -0.48753,-1.08114 0.704626,-0.735465 c 0.908182,-0.947931 0.887693,-1.405641 -0.113986,-2.54649 l -0.81861,-0.932347 0.703546,-0.267481 c 0.386948,-0.147118 0.857623,-0.267485 1.045948,-0.267485 0.18832,0 1.011759,-0.357188 1.829858,-0.793748 1.647114,-0.878956 2.680193,-1.01151 2.924355,-0.37524 0.279001,0.727073 0.167011,2.070457 -0.229798,2.75649 -0.71886,1.242801 -0.751105,1.393558 -0.413655,1.933896 0.581578,0.931269 0.829109,3.905295 0.397446,4.775446 -0.259394,0.522901 -0.296415,0.903308 -0.119978,1.232977 0.475793,0.889037 0.407573,4.158279 -0.09844,4.71742 -0.417272,0.461076 -0.421365,0.595506 -0.05062,1.660041 0.51563,1.480651 0.522097,3.2565 0.01471,4.030927 -0.369181,0.563446 -0.343516,0.664261 0.373611,1.467496 0.423518,0.474369 0.844412,1.180192 0.935326,1.568498 0.09091,0.388297 0.519869,1.797756 0.953256,3.132127 1.029309,3.169208 1.177854,7.495749 0.257355,7.495749 -0.122354,0 -0.559199,-0.532268 -0.970769,-1.182825 z m 19.136093,0.98439 c -0.0636,-0.109141 -0.199636,-1.118582 -0.302236,-2.243198 -0.170886,-1.873237 -0.127251,-2.172849 0.52024,-3.571876 0.388731,-0.839909 0.924081,-2.34324 1.189678,-3.340732 0.292695,-1.099267 0.752483,-2.095005 1.167347,-2.528017 0.775882,-0.80985 0.865761,-1.396209 0.287565,-1.876073 -0.504182,-0.418434 -0.505675,-1.654284 -0.0038,-3.343508 0.367162,-1.236345 0.358507,-1.390253 -0.132284,-2.352921 -0.630997,-1.23766 -0.684856,-3.198752 -0.124674,-4.539467 0.357587,-0.855819 0.357587,-1.023954 0,-1.569691 -0.538184,-0.821378 -0.496372,-2.641381 0.09045,-3.937125 0.463193,-1.022744 0.463042,-1.085016 -0.0045,-1.852081 -0.676651,-1.110329 -0.661868,-3.19482 0.02527,-3.562567 0.807482,-0.432149 1.189868,-0.336523 2.638102,0.659678 0.746445,0.513466 1.712304,1.004594 2.146358,1.091406 0.96133,0.19227 0.983475,0.44586 0.127725,1.46286 -0.363802,0.432353 -0.661455,0.946426 -0.661455,1.142371 0,0.195953 0.297653,0.710025 0.661455,1.142378 0.778899,0.925666 0.805762,1.169543 0.226298,2.053929 -0.368355,0.562176 -0.387,0.824886 -0.12147,1.711148 0.234225,0.781777 0.244486,1.843971 0.0405,4.193077 -0.219022,2.5224 -0.195247,3.663074 0.119909,5.754023 0.487426,3.233767 0.490313,4.924888 0.01304,7.635029 -0.336735,1.912239 -0.466802,2.195679 -1.346692,2.934721 -0.535673,0.449932 -1.527257,1.017022 -2.203524,1.260195 -2.067052,0.74331 -2.928321,1.409009 -3.476017,2.686725 -0.510045,1.189889 -0.661088,1.360313 -0.877154,0.989716 z"
       id="KOSS_PRESS" />
    <path
       style="display:inline;fill:#5b5b5b;stroke-width:0.264583"
       d="m 69.374829,149.0743 c -0.326099,-0.22842 -0.876591,-0.97256 -1.223301,-1.65366 -1.247566,-2.45073 -2.86353,-3.13306 -5.110853,-2.15805 -0.578784,0.25111 -0.943142,0.28452 -1.124535,0.10314 -0.413798,-0.4138 -2.915168,-8.4177 -3.465735,-11.08968 -0.569484,-2.76374 -0.665138,-7.95598 -0.214307,-11.63206 0.621218,-5.06542 2.772789,-10.35645 6.069375,-14.92551 1.862881,-2.58194 2.450897,-3.67255 3.441505,-6.38306 1.051875,-2.878145 1.399259,-2.653146 1.634032,1.05833 0.228526,3.61282 0.531442,6.32806 1.106887,9.92187 0.233011,1.45521 0.603023,3.77693 0.822256,5.15938 0.679792,4.2868 1.216274,7.21108 1.626082,8.86354 0.487066,1.96398 1.101114,11.31678 1.207267,18.38855 0.03503,2.33118 -0.398071,3.37927 -1.738627,4.20779 -1.066469,0.65911 -2.212769,0.71186 -3.030046,0.13942 z m 20.32003,-0.33666 c -1.483688,-1.48368 -1.757656,-4.4369 -1.083871,-11.68347 0.182655,-1.96453 0.441637,-4.7625 0.575506,-6.21771 0.432411,-4.70067 0.654074,-6.08512 1.630897,-10.18646 0.155969,-0.65484 0.367538,-1.84546 0.470154,-2.64583 0.102621,-0.80037 0.391237,-2.75029 0.641361,-4.33317 0.250126,-1.58288 0.396705,-3.10003 0.325734,-3.37144 -0.07095,-0.27141 0.03817,-1.04908 0.242527,-1.72815 0.204375,-0.67907 0.372486,-2.01942 0.373597,-2.97856 0.003,-2.30768 0.452491,-6.140686 0.756314,-6.44451 0.145868,-0.145867 0.41778,0.288449 0.685832,1.09547 0.626039,1.88483 1.902479,4.45544 2.906879,5.85411 1.488292,2.07251 3.506191,5.60984 4.528011,7.9375 0.54301,1.23692 1.15799,2.51026 1.36662,2.82962 0.80056,1.22546 1.47761,8.15399 1.26185,12.91308 -0.26962,5.94739 -0.83112,8.56254 -2.67048,12.43767 -1.22199,2.57442 -1.845123,3.0264 -3.280263,2.37924 -0.851207,-0.38384 -1.174464,-0.41342 -1.779391,-0.16285 -1.173457,0.48606 -2.413694,1.80707 -2.70369,2.87977 -0.464249,1.7173 -0.950384,2.17764 -2.299671,2.17764 -0.961306,0 -1.34352,-0.14754 -1.947916,-0.75195 z"
       id="KVADR"
       sodipodi:nodetypes="sssssssssssscsssssssscccssssssssssss" />
    <path
       style="display:inline;fill:#070707;stroke-width:0.264583"
       d="m 63.509313,199.24865 c -0.150646,-0.28148 -0.273894,-1.10041 -0.273894,-1.81985 0,-2.65077 -1.318403,-18.51262 -1.719464,-20.68713 -0.359047,-1.94668 -0.603525,-8.37875 -0.407297,-10.71562 0.74653,-8.89024 0.938155,-10.71563 1.124919,-10.71563 0.114451,0 0.208087,0.18334 0.208087,0.40742 0,0.54743 0.967237,2.41517 1.385289,2.67498 0.183973,0.11435 2.35857,0.76304 4.832422,1.44154 4.482952,1.22954 5.159378,1.27391 5.159378,0.33845 0,-0.52335 0.468548,-0.44991 0.628756,0.0985 0.208094,0.71245 0.650618,5.88388 0.843351,9.85573 0.188349,3.88154 0.134056,4.20459 -1.484384,8.83175 -0.600062,1.71559 -0.88609,3.14322 -1.060185,5.29166 -0.45102,5.5658 -1.223672,9.71638 -1.838677,9.87721 -0.650214,0.17003 -1.102892,1.26253 -1.292432,3.11918 l -0.16206,1.5875 -1.322909,0.1701 c -0.727606,0.0936 -1.658093,0.30192 -2.06775,0.46302 -1.161563,0.45681 -2.241077,0.36426 -2.55315,-0.21885 z m 31.155789,-0.11097 c -2.143598,-0.68561 -2.116801,-0.65856 -2.836846,-2.86296 -0.317249,-0.97125 -0.735434,-1.89756 -0.929286,-2.05845 -0.19386,-0.16088 -0.43221,-0.97356 -0.529667,-1.80595 -0.09745,-0.8324 -0.34494,-2.52548 -0.549952,-3.7624 -0.20502,-1.23693 -0.507037,-3.61818 -0.671153,-5.29167 -0.209211,-2.13334 -0.498321,-3.51716 -0.967356,-4.63021 -1.222486,-2.90103 -1.473354,-4.10322 -1.444607,-6.92262 0.02693,-2.63866 0.730007,-10.87149 1.008698,-11.81122 0.210976,-0.71137 0.63826,-0.42332 1.020249,0.6878 0.420389,1.22285 0.864973,1.77544 1.423988,1.76991 0.236841,-0.002 2.157029,-0.62872 4.267078,-1.39194 l 3.836469,-1.38768 0.190418,-1.58462 c 0.228336,-1.90015 0.817071,-3.90483 1.18254,-4.02666 0.161078,-0.0537 0.331552,1.23261 0.436505,3.29364 0.0947,1.85995 0.35096,4.45329 0.56942,5.76298 0.49353,2.95863 0.50017,7.33636 0.0185,12.17083 -0.880834,8.84024 -1.22516,12.78354 -1.588782,18.1954 -0.212857,3.16799 -0.459134,5.87666 -0.547267,6.01927 -0.254743,0.4122 -1.962899,0.25255 -3.888915,-0.36345 z"
       id="GOLEN" />
    <path
       style="display:inline;fill:#0f0f0f;stroke-width:0.264583"
       d="m 73.383865,37.973798 c -0.0849,-0.08491 -1.331476,-0.257519 -2.770164,-0.383601 -2.511944,-0.220133 -4.102806,-0.681863 -7.444431,-2.160683 -1.417156,-0.627158 -1.532514,-1.412761 -0.264586,-1.80186 3.787493,-1.162312 6.640479,-2.445293 9.013193,-4.053211 1.648823,-1.117356 2.297745,-1.144079 2.297745,-0.09461 0,0.361267 0.199642,1.347269 0.443656,2.191118 0.486352,1.681919 0.749319,5.321218 0.420016,5.812761 -0.241906,0.361088 -1.46956,0.715957 -1.695429,0.490088 z m 13.879854,-0.566963 c -0.199051,-0.518715 0.290476,-7.105123 0.582668,-7.839644 0.263353,-0.66204 0.694521,-0.579863 2.171084,0.41379 1.534567,1.03269 5.966378,3.019335 7.8354,3.512378 2.547079,0.67191 2.369599,1.25907 -0.791033,2.616854 -3.444576,1.47978 -9.424183,2.271083 -9.798119,1.296622 z"
       id="TRAPECIA" />
  </g>
</svg>
