<?xml version="1.0" encoding="UTF-8" standalone="no"?>
<!-- Created with Inkscape (http://www.inkscape.org/) -->

<svg
   width="610"
   height="820"
   viewBox="0 0 161.39584 216.95834"
   version="1.1"
   id="svg5"
   inkscape:version="1.1 (c4e8f9e, 2021-05-24)"
   sodipodi:docname="man_front_muscles.svg"
   shape-rendering="crispEdges"
   xmlns:inkscape="http://www.inkscape.org/namespaces/inkscape"
   xmlns:sodipodi="http://sodipodi.sourceforge.net/DTD/sodipodi-0.dtd"
   xmlns:xlink="http://www.w3.org/1999/xlink"
   xmlns="http://www.w3.org/2000/svg"
   xmlns:svg="http://www.w3.org/2000/svg">
  <sodipodi:namedview
     id="namedview7"
     pagecolor="#ffffff"
     bordercolor="#666666"
     borderopacity="1.0"
     inkscape:pageshadow="2"
     inkscape:pageopacity="0.0"
     inkscape:pagecheckerboard="0"
     inkscape:document-units="px"
     showgrid="false"
     inkscape:zoom="5.1347506"
     inkscape:cx="286.96623"
     inkscape:cy="41.092551"
     inkscape:window-width="1627"
     inkscape:window-height="912"
     inkscape:window-x="0"
     inkscape:window-y="25"
     inkscape:window-maximized="0"
     inkscape:current-layer="layer3"
     units="px"
     width="610mm" />
  <defs
     id="defs2" />
  <g
     inkscape:groupmode="layer"
     id="layer3"
     inkscape:label="l1"
     style="display:inline">
    <rect
       style="fill:#ffff00;fill-opacity:0;stroke-width:0.247447"
       id="GOLEN_AREA"
       width="52.916668"
       height="56.199936"
       x="55.588894"
       y="154.58269" />
    <rect
       style="display:inline;fill:#ffff00;fill-opacity:0;stroke-width:0.208256"
       id="KVADR_AREA"
       width="52.916668"
       height="39.807888"
       x="55.588894"
       y="114.06038" />
    <path
       style="fill:#ff0000;fill-opacity:0.05;stroke-width:0.284961"
       d="m 112.34966,58.402704 c -0.5425,-0.657583 -1.51394,-1.955161 -2.15876,-2.883511 -0.64482,-0.928341 -2.10326,-2.574048 -3.24096,-3.657121 -1.13769,-1.083071 -2.38425,-2.568436 -2.77009,-3.300811 -0.38585,-0.73236 -1.96691,-2.620345 -3.51348,-4.19551 -3.107709,-3.165146 -5.614874,-4.608154 -9.155474,-5.269448 -1.802912,-0.336743 -2.791929,-0.948878 -2.302989,-1.425393 0.152354,-0.14849 1.250884,-0.412687 2.441182,-0.587118 3.326773,-0.487519 6.640863,-1.367442 8.142116,-2.161808 1.715875,-0.907903 2.901755,-0.789123 5.879065,0.58886 3.65344,1.690918 6.26768,4.843785 7.49313,9.036976 0.59006,2.019074 0.99873,15.050476 0.47196,15.050476 -0.16462,0 -0.74319,-0.538023 -1.2857,-1.195592 z"
       id="DELTA1"
       sodipodi:nodetypes="sssssssssssss"
       inkscape:label="DELTA" />
    <path
       style="display:inline;fill:#ff0000;fill-opacity:0.05;stroke-width:0.271157"
       d="m 87.334686,59.469493 c -3.529224,-1.328139 -8.359163,-1.339994 -12.812511,-0.03178 -3.108646,0.913464 -7.760253,0.629032 -10.171107,-0.621935 -2.137753,-1.10926 -3.427196,-3.52413 -4.24087,-7.942295 -0.433049,-2.351415 -0.726089,-3.305324 -1.09894,-3.577286 -0.764278,-0.557422 -0.622923,-1.308978 0.59587,-3.167918 1.37272,-2.093711 3.69512,-4.304806 5.219759,-4.969613 3.188259,-1.390196 8.506254,-1.744935 11.919098,-0.795031 3.303126,0.919291 4.688822,0.945987 7.344483,0.140998 6.009654,-1.821556 13.165433,-0.194176 16.873262,3.83729 1.31404,1.428725 2.42101,3.200058 2.42101,3.873996 0,0.180087 -0.16249,0.519392 -0.3611,0.754141 -0.4925,0.581997 -0.9095,2.164632 -1.26573,4.803773 -0.69442,5.144402 -1.19994,6.068407 -4.079733,7.457183 -1.646596,0.794077 -2.007836,0.860814 -5.037926,0.930942 -3.025756,0.06991 -3.413226,0.01907 -5.305565,-0.692698 z"
       id="CHEST"
       inkscape:label="CHEST" />
    <path
       style="display:inline;fill:#ff0000;fill-opacity:0.05;stroke-width:0.263794"
       d="m 75.661535,38.072924 c -0.985793,-0.211546 -1.054319,-0.225077 -1.064296,-1.438696 -0.0052,-0.621167 -0.198401,-2.257123 -0.429544,-3.635444 -0.493577,-2.943234 -0.753544,-8.673534 -0.409115,-9.017954 4.513869,3.221811 2.958915,2.629835 7.427711,2.861498 3.688893,-0.0627 1.79381,0.775817 7.2088,-2.944447 0.48292,0 0.363398,4.971831 -0.237561,9.882083 l -0.499183,4.078606 -0.913767,0.18688 c -5.313242,1.735064 -3.261169,2.777324 -5.313242,1.735064 -5.242215,-1.70759 -0.527589,0 -5.769803,-1.70759 z"
       id="NECK"
       inkscape:label="NECK"
       sodipodi:nodetypes="ccscccscccc" />
    <path
       style="display:inline;fill:#ff0000;fill-opacity:0.05;stroke-width:0.274759"
       d="m 108.28628,77.701291 c -0.0755,-0.115145 -0.22644,-0.952401 -0.33542,-1.860561 -0.19057,-1.587984 -0.16428,-1.687577 0.68652,-2.601094 0.48654,-0.522442 0.88464,-1.115147 0.88464,-1.317126 0,-0.201969 -1.13106,-1.968534 -2.51347,-3.925688 -3.95282,-5.596165 -4.46294,-6.604096 -4.83897,-9.560973 -0.47681,-3.749224 -0.28586,-9.972349 0.3093,-10.079959 1.1783,-0.21305 6.17968,3.980053 8.59953,7.209738 1.27546,1.702305 1.83935,1.927949 1.83935,0.736 0,-1.551088 0.76237,-0.790683 2.34037,2.334302 1.88017,3.723446 2.47028,5.725313 2.47028,8.380195 0,1.754019 -1.06274,7.206978 -1.54923,7.949043 -0.26453,0.403518 -1.42511,0.340375 -2.63381,-0.14332 l -1.05207,-0.42101 -1.71586,1.754904 c -1.63512,1.67235 -2.18457,2.013232 -2.49116,1.545549 z"
       id="BICEPS1"
       sodipodi:nodetypes="ssssssssssssscss"
       inkscape:label="BICEPS" />
    <path
       style="display:inline;fill:#ff0000;fill-opacity:0.05;stroke-width:0.283628"
       d="m 123.62761,99.297297 c -1.46557,-2.500714 -4.46993,-6.464719 -6.51424,-8.594665 -2.47472,-2.578555 -3.16728,-3.604635 -5.68926,-8.428987 -1.88629,-3.608688 -1.94378,-3.777731 -1.53433,-4.507209 5.31995,-2.348875 4.99215,2.031864 6.96749,-5.498968 0.21056,-0.701964 0.46897,-2.078919 0.5744,-3.059903 0.10565,-0.980992 0.31672,-1.741885 0.46965,-1.690883 0.44946,0.149771 4.43063,8.111519 5.06635,10.131577 0.82291,2.614684 1.39317,4.764265 1.6575,6.247542 0.12508,0.701959 0.56206,2.913848 0.97097,4.915331 0.40892,2.001468 0.74346,4.394496 0.74346,5.317829 l -1.28323,6.227979 c -0.3184,0.51517 -0.65,0.26922 -1.42876,-1.059639 z"
       id="PREDPLECHIA1"
       sodipodi:nodetypes="sssccsssssccss"
       inkscape:label="PREDPLECHIA" />
    <path
       style="display:inline;fill:#ff0000;fill-opacity:0.05;stroke-width:0.2691"
       d="m 79.953063,113.27433 c -0.240201,-0.19002 -0.877041,-1.06647 -1.415219,-1.94767 -4.862496,-7.96164 -6.9798,-14.267896 -5.334394,-15.888098 0.578323,-0.569458 0.309624,-1.590997 -0.132843,-2.026685 -0.147629,-0.145373 -0.579964,-1.280909 -0.960725,-2.523402 -0.583711,-1.904722 0.431118,-2.642446 -0.108341,-4.175508 -1.080565,-3.070803 -0.741825,-2.190581 -1.080565,-3.070803 -0.776388,-2.017686 -0.361095,-5.317134 -0.06427,-7.272758 0.1939,-1.277549 0.174192,-2.131506 -0.07287,-3.156984 -0.237915,-0.987598 -0.257202,-1.613438 -0.06488,-2.104049 0.183773,-0.468742 0.184233,-1.08326 0.0016,-1.869187 -0.14981,-0.643972 -0.193961,-2.011994 -0.09813,-3.040046 0.09584,-1.028058 0.216448,-2.508747 0.268031,-3.290435 0.132623,-2.009723 0.926929,-2.561688 5.233149,-3.636533 2.923515,-0.729718 4.264874,-0.850622 4.541806,-0.409408 0.09457,0.150649 0.2422,0.944461 0.328103,1.764014 0.172865,1.649268 0.447209,1.46199 0.735094,-0.501807 0.239392,-1.633019 0.768533,-1.946415 2.624521,-1.55448 2.106538,0.444857 6.154547,1.905173 6.536135,2.357932 0.982898,1.166164 1.21421,3.858547 1.026385,11.946384 -0.04098,1.76238 -0.05773,4.371231 -0.03738,5.797461 0.02803,1.960732 0.120691,2.886094 -0.0773,4.005403 -0.523335,2.958842 -0.215999,2.509977 -0.585139,5.159431 -0.317168,2.276386 -0.624203,6.156612 -1.4702,5.46525 -0.167647,3.72045 0.3159,4.76822 0.199246,5.858779 -0.182559,1.340229 -1.44178,4.080389 -3.749921,8.160119 -0.997088,1.76239 -2.161982,3.86521 -2.588674,4.67297 -0.749832,1.4195 -0.816633,1.47126 -1.996109,1.54716 -0.708364,0.0451 -1.403534,-0.0658 -1.657037,-0.26705 z"
       id="PRESS"
       sodipodi:nodetypes="cssssscssscssssssssccssccssscc"
       inkscape:label="PRESS" />
    <path
       style="display:inline;fill:#ff0000;fill-opacity:0.05;stroke-width:0.28019"
       d="m 90.093369,97.186322 c -0.06985,-0.111441 -0.219264,-1.142142 -0.331951,-2.290446 -0.187686,-1.912691 -0.139762,-2.218614 0.571388,-3.647108 0.426949,-0.857599 1.014934,-2.392594 1.306643,-3.411096 0.321472,-1.12242 0.826464,-2.13913 1.282116,-2.581262 0.852164,-0.826908 0.95088,-1.425617 0.315837,-1.915588 -0.553751,-0.427247 -0.555391,-1.689128 -0.0042,-3.413931 0.403262,-1.262385 0.393755,-1.419535 -0.145289,-2.402479 -0.693034,-1.263728 -0.752189,-3.266126 -0.136931,-4.635079 0.392744,-0.873845 0.392744,-1.045521 0,-1.602752 -0.591097,-0.838679 -0.545173,-2.697015 0.09934,-4.020051 0.508733,-1.044286 0.508568,-1.107868 -0.005,-1.89109 -0.743176,-1.133715 -0.72694,-3.262111 0.02776,-3.637603 0.886872,-0.441251 1.306852,-0.343611 2.897471,0.673573 0.819832,0.52428 1.88065,1.025753 2.357379,1.114393 1.055848,0.196319 1.080166,0.455251 0.140282,1.493671 -0.399569,0.44146 -0.726486,0.966361 -0.726486,1.166432 0,0.200081 0.326917,0.72498 0.726486,1.166439 0.855481,0.945164 0.884978,1.194177 0.248547,2.09719 -0.40457,0.574017 -0.425049,0.84226 -0.133412,1.747189 0.257252,0.798243 0.268522,1.88281 0.04449,4.281393 -0.240556,2.575529 -0.214444,3.740227 0.131698,5.875217 0.53535,3.301878 0.53852,5.028618 0.01432,7.795841 -0.369841,1.952515 -0.512696,2.241925 -1.479093,2.996533 -0.588338,0.459409 -1.677411,1.038444 -2.420166,1.286738 -2.270276,0.758966 -3.216222,1.438687 -3.817767,2.743313 -0.56019,1.214952 -0.726082,1.388965 -0.963391,1.010563 z"
       id="KOSS_PRESS1"
       sodipodi:nodetypes="cssssscsssscsssssssssssscscc"
       inkscape:label="KOSS_PRESS" />
    <path
       style="display:inline;fill:#ff0000;fill-opacity:0.05;stroke-width:0.272642"
       d="m 88.947706,149.72869 c -1.55061,-1.50745 -1.836936,-4.50799 -1.132758,-11.87064 0.190894,-1.996 0.461554,-4.83879 0.601461,-6.31731 0.451917,-4.77597 0.683578,-6.1826 1.704464,-10.34965 0.163004,-0.66533 0.384117,-1.87502 0.491361,-2.6882 0.10725,-0.8132 0.408885,-2.79435 0.670291,-4.40259 0.261409,-1.60824 0.414601,-3.14969 0.340428,-3.42545 -0.07415,-0.27576 0.03989,-1.06588 0.253468,-1.75583 0.213594,-0.68996 0.389287,-2.05177 0.390448,-3.02628 0.0031,-2.34464 0.472903,-6.239041 0.79043,-6.547732 0.152448,-0.148204 0.436625,0.29307 0.716768,1.113012 0.65428,1.91501 1.988297,4.52681 3.038003,5.94788 1.555426,2.10571 3.66438,5.69971 4.7323,8.06466 0.5675,1.25673 1.21022,2.55047 1.42825,2.87495 0.83668,1.24508 1.54427,8.2846 1.31878,13.11994 -0.28179,6.04266 -0.86861,8.6997 -2.79094,12.63691 -1.27713,2.61566 -1.928386,3.07488 -3.428264,2.41735 -0.889603,-0.38998 -1.227442,-0.42004 -1.859655,-0.16546 -1.226389,0.49385 -2.522571,1.83602 -2.825648,2.92591 -0.485191,1.74481 -0.993254,2.21252 -2.403405,2.21252 -1.004668,0 -1.404123,-0.1499 -2.035782,-0.76399 z"
       id="KVADR1"
       sodipodi:nodetypes="sssssscccssssssssssss"
       inkscape:label="KVADR" />
    <path
       style="display:inline;fill:#ff0000;fill-opacity:0.05;stroke-width:0.298264"
       d="m 87.552779,37.85857 c -0.222391,-0.590001 0.324535,-8.081572 0.650987,-8.917037 0.294229,-0.753024 0.775953,-0.659554 2.425647,0.470656 1.714502,1.174612 6.665959,3.434279 8.754131,3.99508 2.845776,0.764251 2.647486,1.432103 -0.883785,2.976486 -3.848464,1.683145 -10.529199,2.583196 -10.94698,1.474815 z"
       id="TRAPECIA1"
       sodipodi:nodetypes="ssssss"
       inkscape:label="TRAPECIA" />
    <path
       d="m 49.41101,59.391586 c -0.08638,-0.225277 -0.02684,-3.420144 0.132365,-7.099722 0.231487,-5.350926 0.398372,-7.002411 0.83367,-8.25013 1.496913,-4.290717 3.4025,-6.43984 7.488854,-8.445981 3.298394,-1.6193 3.432127,-1.633433 5.312937,-0.561571 1.396452,0.795836 4.294763,1.617747 8.04201,2.28058 1.004491,0.177684 1.885086,0.381223 1.956897,0.452312 0.430563,0.426301 -0.782181,1.158052 -2.964092,1.788494 -1.377751,0.398096 -3.170622,1.088354 -3.984149,1.533913 -1.788523,0.979552 -6.385315,5.646714 -6.991473,7.098503 -0.236991,0.567594 -1.561252,2.24236 -2.942812,3.721701 -1.381549,1.479344 -3.343099,3.860107 -4.358975,5.290589 -1.858228,2.616604 -2.236329,2.944711 -2.525232,2.191312 z"
       style="fill:#ff0000;fill-opacity:0.05;stroke-width:0.0743681"
       id="DELTA"
       inkscape:label="DELTA" />
    <path
       d="m 72.93796,38.764304 c -0.08907,-0.09002 -1.396879,-0.273018 -2.906235,-0.406687 -2.635332,-0.233381 -4.304339,-0.7229 -7.810107,-2.290718 -1.486768,-0.664901 -1.607792,-1.497786 -0.277583,-1.910301 3.973538,-1.232263 6.966663,-2.592456 9.455926,-4.297143 1.729814,-1.184602 2.410612,-1.212935 2.410612,-0.100304 0,0.38301 0.209448,1.428351 0.46545,2.322985 0.510241,1.783141 0.786126,5.641463 0.440647,6.162588 -0.253789,0.38282 -1.541747,0.759045 -1.77871,0.519583 z"
       style="display:inline;fill:#ff0000;fill-opacity:0.05;stroke-width:0.0738291"
       id="TRAPECIA"
       inkscape:label="TRAPECIA" />
    <path
       d="m 51.278682,76.582715 c -1.448026,-1.553577 -1.763927,-1.766791 -2.404834,-1.623126 -2.625611,0.588568 -2.830136,0.560291 -3.271071,-0.452223 -2.172862,-4.989451 -1.636542,-10.603084 1.621237,-16.969269 1.232774,-2.409028 1.902243,-2.862806 1.902243,-1.289362 0,1.100263 0.513352,1.257352 1.108782,0.339307 1.480217,-2.282226 6.193463,-7.014381 7.801565,-7.832877 1.06567,-0.542402 1.28401,-0.573216 1.702213,-0.240222 0.428498,0.341196 0.459286,0.818104 0.288257,4.465064 -0.347396,7.407937 -0.565599,8.071543 -5.079761,15.449001 l -2.470127,4.036914 0.911508,0.902294 c 0.873158,0.864334 0.904932,0.971858 0.755235,2.555772 -0.14102,1.492121 -0.539582,2.447793 -1.020684,2.447386 -0.09767,-8.5e-5 -0.927706,-0.804977 -1.844563,-1.788659 z"
       style="display:inline;fill:#ff0000;fill-opacity:0.05;stroke-width:0.0733223"
       id="BICEPS"
       inkscape:label="BICEPS"
       onmousedown="" />
    <path
       d="m 37.458214,98.626689 -1.047481,-4.100261 c -0.430178,0 -0.27342,-2.6925 0.299403,-5.142726 0.302101,-1.292223 0.758344,-3.452908 1.013858,-4.801508 0.658094,-3.473387 1.235063,-5.68538 2.096394,-8.037114 0.888222,-2.425175 4.362237,-9.03874 4.824547,-9.184593 0.201205,-0.06348 0.401083,0.494285 0.529026,1.476277 0.113107,0.868069 0.394009,2.007405 0.624223,2.531864 0.496942,1.132038 -0.17371,0.03752 1.243551,5.909596 0,0 0,0 2.465123,-0.359723 l 1.919908,-1.549667 1.100417,1.122463 c 0.60523,0.617357 1.100416,1.22957 1.100416,1.360479 0,0.130903 -0.658622,1.269705 -1.463617,2.530661 -0.804984,1.260953 -1.839663,3.001373 -2.29929,3.86759 -0.484299,0.912733 -1.886929,2.631042 -3.335887,4.086673 -3.007748,3.021611 -3.680632,3.831828 -6.328384,7.620062 -1.97729,2.828976 -2.382583,3.223583 -2.742207,2.669927 z"
       style="display:inline;fill:#ff0000;fill-opacity:0.05;stroke-width:0.0738998"
       id="PREDPLECHIA"
       sodipodi:nodetypes="ccssssscsccssssssc"
       inkscape:label="PREDPLECHIA" />
    <path
       d="m 71.255248,96.157895 c -0.654436,-0.98749 -1.211241,-1.396934 -3.065507,-2.254253 -2.843047,-1.314485 -4.383332,-2.822054 -4.393189,-4.299864 -0.0041,-0.556275 -0.126974,-1.497244 -0.273927,-2.09105 -0.187839,-0.759038 -0.126179,-2.294966 0.207651,-5.172133 0.40687,-3.50678 0.425576,-4.562698 0.130706,-7.377989 -0.310673,-2.966253 -0.297794,-3.360351 0.132593,-4.055874 0.449957,-0.727119 0.447464,-0.832269 -0.04433,-1.873275 l -0.521004,-1.102918 0.753005,-0.750281 c 0.970535,-0.967025 0.948639,-1.433956 -0.121815,-2.597786 l -0.874812,-0.951127 0.751851,-0.272868 c 0.413515,-0.150083 0.916505,-0.272874 1.117759,-0.272874 0.20125,0 1.081224,-0.364383 1.955489,-0.809736 1.7602,-0.896662 2.864207,-1.031887 3.12513,-0.3828 0.298158,0.741719 0.178479,2.112164 -0.245573,2.812016 -0.768217,1.267836 -0.802676,1.421629 -0.442056,1.972851 0.621508,0.95003 0.886033,3.983962 0.424732,4.871641 -0.277201,0.533435 -0.316766,0.921505 -0.128215,1.257814 0.50846,0.906945 0.435557,4.242042 -0.105199,4.812446 -0.445919,0.470364 -0.450295,0.607501 -0.0541,1.693481 0.551029,1.510476 0.557943,3.322096 0.01572,4.112124 -0.394528,0.574791 -0.367099,0.677642 0.399264,1.497052 0.452592,0.483926 0.902384,1.203974 0.999542,1.600095 0.09715,0.396121 0.555561,1.833974 1.018701,3.195222 1.09998,3.23305 1.258724,7.646742 0.275024,7.646742 -0.130754,0 -0.59759,-0.542992 -1.037417,-1.206656 z"
       style="display:inline;fill:#ff0000;fill-opacity:0.05;stroke-width:0.0730927"
       id="KOSS_PRESS"
       inkscape:label="KOSS_PRESS" />
    <path
       d="m 69.847622,150.11565 c -0.339978,-0.23333 -0.913898,-0.99346 -1.275364,-1.68921 -1.300664,-2.5034 -2.985402,-3.20039 -5.328374,-2.20443 -0.603417,0.25651 -0.983283,0.29064 -1.172396,0.10536 -0.431411,-0.42269 -3.039242,-8.59863 -3.61324,-11.32805 -0.593722,-2.82314 -0.693448,-8.12698 -0.223429,-11.88207 0.647658,-5.1743 2.890802,-10.57905 6.327694,-15.24631 1.942166,-2.63744 2.555208,-3.7515 3.587977,-6.52027 1.096642,-2.940008 1.458811,-2.710173 1.703577,1.08108 0.238252,3.69048 0.55406,6.46408 1.153997,10.13514 0.242927,1.48648 0.628688,3.8581 0.857252,5.27027 0.708724,4.37894 1.26804,7.36607 1.69529,9.05405 0.507796,2.00619 1.147978,11.56003 1.258649,18.78379 0.03652,2.38129 -0.415013,3.45191 -1.812625,4.29823 -1.111859,0.67328 -2.306946,0.72717 -3.159008,0.14242 z"
       style="display:inline;fill:#ff0000;fill-opacity:0.05;stroke-width:0.0722426"
       id="KVADR"
       inkscape:label="KVADR" />
    <path
       d="m 63.474218,200.25319 c -0.160874,-0.28734 -0.29249,-1.12335 -0.29249,-1.85778 0,-2.70601 -1.407916,-18.89843 -1.836207,-21.11826 -0.383425,-1.98725 -0.644501,-8.55337 -0.434951,-10.93894 0.797216,-9.07551 1.001852,-10.93895 1.201296,-10.93895 0.122221,0 0.222215,0.18716 0.222215,0.41592 0,0.55883 1.032908,2.46549 1.479343,2.73072 0.196464,0.11674 2.518706,0.77895 5.160518,1.47158 4.787321,1.25517 5.509674,1.30046 5.509674,0.3455 0,-0.53425 0.50036,-0.45929 0.671446,0.10056 0.222223,0.72729 0.694792,6.0065 0.900611,10.06113 0.201137,3.96243 0.143158,4.29221 -1.585166,9.01581 -0.640803,1.75134 -0.946251,3.20872 -1.132168,5.40193 -0.481641,5.6818 -1.306753,9.91888 -1.963514,10.08306 -0.69436,0.17358 -1.177773,1.28884 -1.380182,3.18418 l -0.173062,1.62059 -1.412727,0.17364 c -0.777006,0.0955 -1.770669,0.30822 -2.208139,0.47269 -1.240428,0.46631 -2.393235,0.37185 -2.726497,-0.22341 z"
       style="display:inline;fill:#ff0000;fill-opacity:0.05;stroke-width:0.0730917"
       id="GOLEN"
       inkscape:label="GOLEN" />
    <path
       d="m 98.97268,200.25319 c 0.160874,-0.28734 0.29249,-1.12335 0.29249,-1.85778 0,-2.70601 1.40795,-18.89843 1.83624,-21.11826 0.38343,-1.98725 0.6445,-8.55337 0.43496,-10.93894 -0.79721,-9.07551 -1.00184,-10.93895 -1.20131,-10.93895 -0.12223,0 -0.22223,0.18716 -0.22223,0.41592 0,0.55883 -1.032921,2.46549 -1.479356,2.73072 -0.196464,0.11674 -2.518706,0.77895 -5.160521,1.47158 -4.787323,1.25517 -5.509672,1.30046 -5.509672,0.3455 0,-0.53425 -0.50036,-0.45929 -0.671445,0.10056 -0.222224,0.72729 -0.694793,6.0065 -0.900612,10.06113 -0.201137,3.96243 -0.143158,4.29221 1.585167,9.01581 0.640798,1.75134 0.946247,3.20872 1.132163,5.40193 0.481641,5.6818 1.306753,9.91888 1.963514,10.08306 0.694362,0.17358 1.177774,1.28884 1.380183,3.18418 l 0.173063,1.62059 1.412728,0.17364 c 0.777008,0.0955 1.770671,0.30822 2.208141,0.47269 1.240428,0.46631 2.393235,0.37185 2.726497,-0.22341 z"
       style="display:inline;fill:#ff0000;fill-opacity:0.05;stroke-width:0.0730917"
       id="GOLEN1"
       inkscape:label="GOLEN" />
    <rect
       style="fill:#ffff00;fill-opacity:0;stroke-width:0.446511"
       id="BRAIN_AREA"
       width="23.220703"
       height="20.354052"
       x="69.403114"
       y="0.098160423" />
    <path
       style="fill:#ff0000;fill-opacity:0.05;stroke-width:0.102336px;stroke-linecap:butt;stroke-linejoin:miter;stroke-opacity:1"
       d="m 90.542006,6.3870525 c 0,0 -1.030262,-6.37758049 -9.417627,-6.3870525 -8.130025,-0.00918139 -8.920643,6.2839965 -8.920643,6.2839965 0,0 5.185392,0.7470489 9.272187,0.790993 4.086799,0.043949 9.066083,-0.687937 9.066083,-0.687937 z"
       id="BRAIN"
       sodipodi:nodetypes="cscsc" />
  </g>
</svg>
