<?xml version="1.0" encoding="UTF-8" standalone="no"?>
<!-- Created with Inkscape (http://www.inkscape.org/) -->

<svg
   width="610"
   height="850"
   viewBox="0 0 161.39583 224.89584"
   version="1.1"
   id="svg5"
   inkscape:version="1.1 (c4e8f9e, 2021-05-24)"
   sodipodi:docname="woman_front.svg"
   xmlns:inkscape="http://www.inkscape.org/namespaces/inkscape"
   xmlns:sodipodi="http://sodipodi.sourceforge.net/DTD/sodipodi-0.dtd"
   xmlns:xlink="http://www.w3.org/1999/xlink"
   xmlns="http://www.w3.org/2000/svg"
   xmlns:svg="http://www.w3.org/2000/svg">
  <sodipodi:namedview
     id="namedview7"
     pagecolor="#ffffff"
     bordercolor="#666666"
     borderopacity="1.0"
     inkscape:pageshadow="2"
     inkscape:pageopacity="0.0"
     inkscape:pagecheckerboard="0"
     inkscape:document-units="mm"
     showgrid="false"
     units="px"
     width="610px"
     showguides="true"
     inkscape:guide-bbox="true"
     inkscape:zoom="0.540116"
     inkscape:cx="379.5481"
     inkscape:cy="259.20358"
     inkscape:window-width="1312"
     inkscape:window-height="912"
     inkscape:window-x="0"
     inkscape:window-y="25"
     inkscape:window-maximized="0"
     inkscape:current-layer="layer1" />
  <defs
     id="defs2" />
  <g
     inkscape:groupmode="layer"
     id="layer3"
     inkscape:label="areas">
    <rect
       style="fill:#ffff00;fill-opacity:0.0;stroke-width:0.253993"
       id="KVADR_AREA"
       width="68.30365"
       height="45.649666"
       x="46.360527"
       y="114.43428" />
    <rect
       style="fill:#ffff00;fill-opacity:0.0;stroke-width:0.264583"
       id="GOLEN_AREA"
       width="68.30365"
       height="49.535526"
       x="46.360523"
       y="160.6131" />
  </g>
  <g
     inkscape:label="muscles"
     inkscape:groupmode="layer"
     id="layer1"
     sodipodi:insensitive="true">
    <path
       style="fill:#ff0000;fill-opacity:0.05;stroke-width:0.262186"
       d="m 79.1265,38.838388 c -0.288404,-0.0709 -0.673573,-0.250056 -0.855932,-0.398145 -0.182358,-0.14809 -1.167135,-0.329038 -2.188395,-0.402111 l -1.856833,-0.132854 0.150467,-0.752336 c 0.08276,-0.413783 0.03934,-1.665436 -0.09645,-2.781449 -0.135804,-1.116012 -0.287328,-3.756934 -0.336716,-5.868715 -0.07206,-3.080937 -0.02209,-3.813616 0.252908,-3.708093 0.188488,0.07233 0.342706,0.277575 0.342706,0.456102 0,0.416626 0.852893,1.192417 1.310927,1.192417 0.193593,0 0.577427,0.20402 0.852962,0.453376 0.422969,0.382783 0.993175,0.446526 3.662026,0.409386 1.818783,-0.02533 3.279221,-0.162162 3.439344,-0.322282 0.15306,-0.153062 0.515037,-0.278294 0.804393,-0.278294 0.289357,0 0.918401,-0.442437 1.397879,-0.983196 L 86.877562,24.739 86.702391,30.113802 c -0.09635,2.956141 -0.248635,5.905728 -0.338425,6.554637 l -0.163252,1.179834 -1.323959,0.133645 c -0.728176,0.0735 -1.637318,0.338969 -2.020315,0.589918 -0.671949,0.440278 -2.493568,0.570456 -3.72994,0.266552 z"
       id="NECK" />
    <path
       style="fill:#ff0000;fill-opacity:0.05;stroke-width:0.260734"
       d="m 105.63931,73.445449 c -0.68183,-0.848438 -0.81592,-1.201213 -0.66896,-1.759957 0.10113,-0.384347 0.23998,-1.290449 0.30864,-2.013551 0.13414,-1.412747 0.26072,-1.173399 -2.75651,-5.212824 -1.80554,-2.417263 -4.013831,-7.556496 -4.701565,-10.941628 -0.17479,-0.860425 -0.42688,-1.988672 -0.560189,-2.507225 -0.320045,-1.245002 -0.31153,-6.533 0.0119,-7.383698 0.139829,-0.367844 0.380669,-0.668809 0.535139,-0.668809 0.154487,0 1.184041,0.891999 2.287875,1.982215 1.10385,1.090215 2.48275,2.312068 3.06425,2.715227 1.04402,0.723856 2.96636,2.839055 3.84699,4.23297 0.24925,0.394503 1.16495,2.741111 2.0349,5.214687 0.86994,2.473566 1.74826,4.94236 1.95183,5.486211 0.21325,0.56966 0.4173,2.338027 0.48138,4.171743 0.0611,1.750615 0.19211,3.796944 0.29096,4.5474 0.21873,1.660518 -0.0925,1.879067 -1.83208,1.286341 l -1.17348,-0.399832 -0.51131,1.155934 c -0.67998,1.537187 -1.42881,1.564393 -2.6098,0.0948 z"
       id="BICEPS1"
       sodipodi:nodetypes="ccssssssssssscsscscc" />
    <path
       style="fill:#ff0000;fill-opacity:0.05;stroke-width:0.168729"
       d="m 107.51988,53.220407 c -0.48658,-1.278445 -0.76888,-1.707428 -1.94939,-2.962316 -0.71827,-0.763535 -2.12715,-2.039164 -3.13081,-2.834732 -1.00368,-0.795567 -2.02812,-1.739791 -2.27655,-2.098278 -0.423467,-0.611067 -1.089694,-2.712392 -1.098224,-3.4639 -0.002,-0.185602 -0.081,-0.615341 -0.175357,-0.954982 -0.2239,-0.806123 -0.742357,-0.985389 -2.849835,-0.985389 -1.238732,0 -2.096236,-0.118664 -3.621244,-0.501103 -2.124119,-0.532688 -2.466815,-0.700925 -2.466815,-1.211012 0,-0.338005 0.371205,-0.535536 1.687279,-0.897862 0.417604,-0.114975 2.012083,-0.770616 3.54329,-1.456993 l 2.784008,-1.247958 1.814051,-0.05712 c 2.339737,-0.07367 2.945657,0.187337 4.285947,1.846192 1.50038,1.856975 2.11036,3.691715 3.66845,11.034242 0.56008,2.639379 0.68701,6.031157 0.22915,6.123601 -0.18612,0.03759 -0.34976,-0.08495 -0.44395,-0.332395 z"
       id="DELTA1"
       sodipodi:nodetypes="ssssccssssscssssss" />
    <path
       style="fill:#ff0000;fill-opacity:0.05;stroke-width:0.207359"
       d="m 95.329225,209.22401 c -0.4446,-0.27319 -1.284409,-0.56182 -1.866229,-0.64138 -2.133713,-0.2918 -2.071754,-0.20316 -1.908359,-2.73048 0.160354,-2.4803 0.671423,-6.42674 1.471052,-11.35939 0.620949,-3.83039 1.440355,-9.37239 1.762881,-11.92312 0.122574,-0.96942 0.455042,-2.74233 0.738804,-3.93983 0.283775,-1.19749 0.614604,-3.20369 0.735178,-4.45821 0.120573,-1.25452 0.538782,-3.96055 0.929365,-6.0134 0.390578,-2.05287 0.779795,-4.33899 0.864955,-5.08029 0.14325,-1.24694 0.19258,-1.34784 0.659087,-1.34784 0.465557,0 0.524707,0.11929 0.770934,1.55519 0.811187,4.73026 0.999577,7.53966 0.994157,14.82616 -0.007,7.69751 -0.21547,11.01761 -1.021754,16.17399 -0.26752,1.7107 -0.547897,3.81022 -0.623077,4.66557 -0.0753,0.85536 -0.2699,2.67215 -0.432717,4.03732 -0.16279,1.36515 -0.296,3.35034 -0.296,4.41151 0,1.88027 -0.0135,1.93453 -0.531897,2.1316 -0.815463,0.31005 -1.363555,0.23505 -2.24638,-0.3074 z"
       id="GOLEN3"
       sodipodi:nodetypes="ssssssssssscscssss" />
    <path
       style="fill:#ff0000;fill-opacity:0.05;stroke-width:0.278994"
       d="m 77.791967,59.470608 c -0.08499,-0.137513 -0.07372,-1.090044 0.02504,-2.116736 0.167913,-1.74567 0.116111,-1.997798 -0.798901,-3.888316 -1.677335,-3.465567 -3.263125,-4.090655 -10.25133,-4.040875 -4.419213,0.03148 -4.525237,-0.02177 -4.792126,-2.406613 -0.09198,-0.82184 -0.293105,-1.645936 -0.446964,-1.831324 -0.319061,-0.384444 -0.916525,-5.138308 -0.691533,-5.50235 0.08136,-0.131648 0.674099,-0.239383 1.317189,-0.239408 1.217157,-5e-5 4.542936,-0.587827 6.470134,-1.143489 1.97563,-0.569625 10.642913,-0.313489 11.464406,0.338798 0.167565,0.133051 0.397373,0.149202 0.510684,0.03589 0.349058,-0.34906 4.633467,-0.880833 7.197098,-0.893292 1.878996,-0.0092 2.926585,0.150317 4.603395,0.700663 1.207618,0.396351 3.193737,0.786225 4.476215,0.87868 3.125076,0.225291 3.333626,0.404317 2.899819,2.489217 -0.18756,0.901442 -0.453587,2.226984 -0.591177,2.945651 -0.1376,0.718665 -0.384607,1.557854 -0.548907,1.864864 -0.16431,0.307009 -0.298727,0.802175 -0.298727,1.100366 0,0.918981 -0.635279,1.150323 -3.544283,1.29068 -4.342672,0.209531 -7.273535,0.939218 -8.731424,2.173836 -1.394129,1.18062 -2.789937,4.72352 -2.789937,7.081533 0,0.529485 -0.156934,1.012607 -0.348742,1.073603 -0.780495,0.248204 -4.98639,0.320861 -5.129924,0.08862 z"
       id="CHEST" />
    <path
       style="fill:#ff0000;fill-opacity:0.05;stroke-width:0.190731"
       d="m 88.690535,99.721369 c -0.07251,-0.117342 -0.171029,-0.954173 -0.218909,-1.859626 -0.07675,-1.451365 -0.0038,-1.962402 0.614938,-4.316492 0.59628,-2.26812 0.717982,-3.080783 0.808173,-5.396579 0.102599,-2.634272 0.122556,-2.739224 0.590923,-3.107636 0.472987,-0.372061 0.476927,-0.394509 0.1624,-0.92696 -0.397637,-0.673147 -0.426146,-3.009916 -0.0496,-4.065178 0.14141,-0.396299 0.18035,-0.764165 0.087,-0.821858 -0.22788,-0.140835 -0.21603,-3.557315 0.0144,-4.163473 0.11743,-0.30888 0.11743,-0.523287 0,-0.595865 -0.42239,-0.26105 -0.0838,-3.949197 0.422218,-4.599732 0.10552,-0.135644 0.0152,-0.478376 -0.240151,-0.911142 -0.561697,-0.952009 -0.465087,-2.957167 0.17326,-3.595997 0.385548,-0.385827 0.631448,-0.428839 2.658976,-0.46507 1.265064,-0.0226 2.415558,-0.137008 2.652385,-0.263752 0.569417,-0.304744 1.016154,-0.09327 1.016154,0.481036 0,0.261481 -0.1762,1.229749 -0.391567,2.151702 -0.21536,0.921954 -0.517647,2.87788 -0.671747,4.346501 -0.15409,1.468625 -0.407027,3.463218 -0.562077,4.432431 -0.155047,0.969213 -0.281907,2.696454 -0.281907,3.83832 0,2.284631 -0.0461,2.130925 2.313106,7.70981 0.522852,1.236382 0.903569,2.395073 0.846039,2.574863 -0.18781,0.587014 -3.806352,4.182687 -4.621246,4.592027 -0.43699,0.219515 -0.992117,0.680008 -1.233614,1.023315 -0.24149,0.343305 -1.076414,1.418111 -1.855392,2.388447 -1.348713,1.680059 -1.912199,2.071289 -2.2338,1.550908 z"
       id="KOSS_PRESS1"
       sodipodi:nodetypes="cscsssssssscssssssssssssscc" />
    <path
       style="fill:#ff0000;fill-opacity:0.05;stroke-width:0.144351"
       d="m 78.386949,112.91933 c -0.36692,-0.11293 -0.732917,-0.28711 -0.813324,-0.38691 -0.08041,-0.0999 -0.548737,-1.25328 -1.040735,-2.56326 -0.491999,-1.30999 -1.304505,-3.45359 -1.805568,-4.76356 -1.679908,-4.39198 -1.979915,-5.26162 -2.315548,-6.712335 -0.183683,-0.793932 -0.50191,-1.889653 -0.707172,-2.434946 -0.95631,-2.540507 -1.00285,-3.019624 -1.516245,-15.608903 -0.08742,-2.143609 -0.223282,-4.493165 -0.301921,-5.221232 -0.07863,-0.728068 -0.142981,-2.372052 -0.142981,-3.653295 0,-2.306469 -0.193795,-4.277989 -0.446552,-4.542881 -0.07196,-0.07543 -0.130852,-0.290611 -0.130852,-0.478193 0,-0.275879 0.172414,-0.423927 0.902193,-0.77467 0.496205,-0.238484 1.129545,-0.555097 1.40742,-0.703583 0.277876,-0.148483 1.133582,-0.570048 1.901571,-0.936808 1.645787,-0.785959 2.401067,-1.41318 3.524708,-2.927089 1.468649,-1.978749 1.335656,-1.909643 3.67492,-1.909643 h 2.010192 l 0.363303,0.575513 c 0.406837,0.644469 1.171311,1.431135 2.510088,2.582945 0.979594,0.842791 2.564276,2.03817 2.701944,2.03817 0.04707,0 0.286323,0.146158 0.531686,0.32479 0.245363,0.178634 0.937446,0.589703 1.537969,0.913486 1.218445,0.656952 1.412549,1.004721 0.878221,1.573486 -0.303727,0.323304 -0.312108,0.462042 -0.442588,7.327489 -0.07315,3.848867 -0.201425,7.478009 -0.285059,8.064761 -0.08362,0.586753 -0.210834,2.365981 -0.282671,3.953837 -0.267124,5.904173 -1.41096,10.995786 -3.842781,17.105581 -0.510346,1.28221 -0.968082,2.79408 -1.338287,4.42023 -0.370647,1.62812 -0.728429,2.80947 -1.048462,3.46191 -0.455086,0.92776 -0.531463,1.00617 -1.207568,1.23952 -0.905172,0.31244 -3.311838,0.33245 -4.275901,0.0357 z"
       id="PRESS" />
    <path
       style="fill:#ff0000;fill-opacity:0.05;stroke-width:0.267444"
       d="m 87.354209,158.69061 -1.002138,-1.08552 -0.218485,-3.66162 c -0.395927,-6.63536 -0.233769,-15.95524 0.321968,-18.50479 0.208409,-0.95612 0.49399,-2.46049 0.634631,-3.34307 0.520834,-3.26842 3.264224,-13.22991 3.889279,-14.12229 0.220512,-0.31483 0.400935,-0.8174 0.400935,-1.1168 0,-0.2994 0.300878,-1.10957 0.66861,-1.80036 0.367742,-0.69079 0.668615,-1.44948 0.668615,-1.68599 0,-0.23653 0.18772,-1.0544 0.417156,-1.81752 0.391891,-1.30346 0.637449,-2.21831 1.197911,-4.46307 0.499833,-2.00198 1.120421,-5.76187 1.107346,-6.70908 -0.009,-0.650831 0.161889,-1.153848 0.494072,-1.454467 0.608075,-0.550304 1.330078,-0.347109 1.330078,0.374309 0,0.2851 0.341148,1.281768 0.758115,2.214828 0.416977,0.93305 0.832857,2.07588 0.924174,2.53963 0.0914,0.46373 0.706107,1.96811 1.366244,3.34305 1.4749,3.07203 2.42533,6.28258 2.79852,9.45345 0.27774,2.35975 0.25133,2.80001 -0.4892,8.15704 -0.15248,1.10323 -0.52933,5.55617 -0.83744,9.89545 -0.30809,4.33929 -0.66568,9.33381 -0.79462,11.09894 -0.12896,1.76513 -0.28923,4.23231 -0.35621,5.4826 -0.0668,1.25033 -0.3095,2.93521 -0.53899,3.74424 -0.229497,0.80901 -0.418697,1.92602 -0.420447,2.48225 -0.005,1.165 -0.567487,1.56025 -1.291321,0.9052 -0.25625,-0.23191 -0.807357,-1.35974 -1.224675,-2.5063 L 96.39955,154.02606 H 94.721094 93.04263 l -0.168136,1.4322 c -0.183893,1.56626 -0.427522,2.13744 -1.470993,3.44865 -0.592328,0.74431 -0.860913,0.8692 -1.869434,0.8692 -1.033955,1e-5 -1.300046,-0.13249 -2.179858,-1.0855 z"
       id="KVADR1"
       sodipodi:nodetypes="scsssssssssssssccsssscscsscccssss" />
    <path
       style="fill:#ff0000;fill-opacity:0.05;stroke-width:0.187441"
       d="m 116.64242,96.568812 c -0.2175,-0.231957 -0.65925,-1.138696 -0.98167,-2.014981 -0.53069,-1.44242 -1.44908,-3.300474 -3.19631,-6.466687 -0.34135,-0.618555 -1.09037,-1.746366 -1.6645,-2.506247 -0.57413,-0.759887 -1.32365,-1.772065 -1.6656,-2.249286 -0.34196,-0.477221 -0.85293,-1.162893 -1.13549,-1.523717 -0.53389,-0.681782 -1.19663,-2.409163 -1.89906,-4.949723 l -0.40978,-1.482081 0.60186,-0.562484 c 0.33102,-0.309366 0.70093,-0.781131 0.82203,-1.048361 0.42934,-0.947542 1.08923,-1.891683 1.32213,-1.891683 0.12991,0 0.94397,0.626854 1.80904,1.393001 0.86506,0.766151 1.60344,1.306973 1.64085,1.201823 0.0376,-0.105151 -0.0202,-0.668739 -0.12776,-1.252421 -0.10761,-0.583684 -0.22261,-2.537335 -0.25543,-4.341444 -0.0571,-3.139295 -0.0442,-3.280204 0.30307,-3.280204 0.29952,0 0.46986,0.359491 0.97701,2.06184 0.39517,1.326446 1.21504,3.265214 2.29872,5.435769 1.64908,3.30305 2.84576,6.470623 3.22196,8.528532 1.20216,6.576217 1.39362,9.202018 0.68084,9.337683 -0.2574,0.04898 -0.55979,-0.409994 -1.35721,-2.060022 -0.56433,-1.167681 -1.02681,-2.075619 -1.02778,-2.017639 -0.004,0.290497 2.00558,5.853827 2.60473,7.208317 0.21593,0.488162 0.39262,1.035215 0.39262,1.21567 0,0.474485 -0.48695,0.806995 -1.02985,0.703217 -0.36259,-0.06933 -0.46968,-0.01173 -0.46968,0.252507 0,0.317297 -0.50459,0.730361 -0.8922,0.730361 -0.092,0 -0.34504,-0.189779 -0.56254,-0.42174 z m 1.19576,-1.57667 c -0.15858,-0.292616 -0.2917,-0.472737 -0.29582,-0.400269 -0.0126,0.222801 0.42337,1.093072 0.50621,1.010243 0.0427,-0.04288 -0.0517,-0.317357 -0.21039,-0.609974 z m -1.12681,-2.899539 c -0.65299,-1.827339 -1.91244,-4.467479 -2.44725,-5.130103 -0.28113,-0.348315 -0.28312,-0.328391 -0.028,0.281162 0.77297,1.84814 3.00413,6.730219 3.0533,6.681044 0.031,-0.03113 -0.22889,-0.855585 -0.57787,-1.832103 z"
       id="PREDPLECHIA1"
       sodipodi:nodetypes="scssssscscssccssssssscsssssscccccscccc" />
    <path
       style="fill:#ff0000;fill-opacity:0.05;stroke-width:0.196625"
       d="m 87.712973,37.720976 c -0.324432,-0.167706 -0.705424,-0.418592 -0.84665,-0.557523 -0.395914,-0.389482 -0.470579,-2.161111 -0.191432,-4.542323 0.28618,-2.441218 0.542086,-2.715895 1.373916,-1.474687 0.704218,1.050789 2.857078,1.825216 6.546043,2.354743 3.678662,0.528045 3.917339,0.595232 3.993379,1.124168 0.0462,0.3219 -0.14216,0.54009 -0.786536,0.910785 -1.787089,1.028108 -6.852039,2.49262 -8.614031,2.490715 -0.486647,-5.31e-4 -1.150257,-0.138172 -1.474689,-0.305878 z"
       id="TRAPECIA1"
       sodipodi:nodetypes="sssssccss" />
    <path
       d="m 68.496634,37.566592 c -2.10057,-0.496541 -3.90506,-1.078735 -5.17448,-1.669473 -1.022813,-0.475978 -1.230995,-0.652505 -1.179748,-1.000363 0.07748,-0.526032 0.868397,-0.785045 3.751244,-1.22849 2.758874,-0.424373 6.033241,-1.408533 6.499003,-1.953371 0.196223,-0.229536 0.487396,-0.710695 0.647051,-1.069245 0.192599,-0.432538 0.403368,-0.630396 0.626356,-0.587994 0.389785,0.07412 0.570421,1.413034 0.608031,4.506852 0.01937,1.592958 -0.03683,1.966608 -0.356909,2.373535 -0.733695,0.932738 -3.014745,1.197242 -5.420548,0.628549 z"
       style="fill:#ff0000;fill-opacity:0.05;stroke-width:0.0520237"
       id="TRAPECIA" />
    <path
       d="m 52.725048,53.506426 c -0.05802,-0.151217 -0.0601,-0.593413 -0.0047,-0.982657 0.673281,-4.722704 1.043838,-6.740266 1.710446,-9.312839 0.432835,-1.670407 0.865758,-3.354115 0.96205,-3.741573 0.212207,-0.853874 1.227539,-2.442147 2.337716,-3.65686 1.001081,-1.095337 1.966634,-1.460738 3.851975,-1.457721 1.374462,0.0021 1.04987,-0.108794 5.337742,1.825289 0.835203,0.376724 2.16394,0.870098 2.952743,1.09638 1.662874,0.477028 1.906944,0.826201 1.019303,1.458256 -0.758588,0.540161 -3.801731,1.18794 -6.130866,1.305047 -2.317605,0.116525 -2.194097,0.01516 -2.642756,2.168866 -0.371934,1.785377 -1.150786,2.767741 -4.107098,5.180259 -0.427741,0.349062 -1.054736,1.052013 -1.393323,1.562113 -0.338583,0.510099 -0.816614,1.083369 -1.062288,1.273935 -0.245674,0.190566 -0.827687,1.043352 -1.293356,1.895086 -0.828332,1.515036 -1.31867,1.957141 -1.537676,1.386419 z"
       style="fill:#ff0000;fill-opacity:0.05;stroke-width:0.0446429"
       id="DELTA" />
    <path
       d="m 52.35645,73.114665 c -0.218304,-0.333168 -0.43712,-0.851959 -0.486269,-1.152873 l -0.08936,-0.547096 -1.04293,0.510388 c -1.987083,0.972456 -2.063646,0.860448 -2.24827,-3.288922 l -0.162419,-3.650252 1.0255,-2.998426 c 2.216223,-6.479935 3.15822,-9.053344 3.817647,-10.429289 0.718727,-1.499681 2.490047,-3.406088 4.602883,-4.953914 0.685123,-0.501902 1.894212,-1.587205 2.68686,-2.41177 0.792653,-0.824565 1.663321,-1.499209 1.934821,-1.499209 0.656824,0 1.249049,1.451081 1.542975,3.780612 0.192055,1.522142 0.147168,2.08483 -0.270375,3.389523 -0.275364,0.860417 -0.797793,2.747472 -1.160954,4.193455 -0.446661,1.778439 -0.953642,3.07448 -1.566949,4.005748 -0.498662,0.757169 -0.847746,1.530191 -0.775745,1.717824 0.182757,0.476257 -0.370465,1.424826 -0.830979,1.424826 -0.210062,0 -0.381926,0.15132 -0.381926,0.33627 0,0.184941 -0.890374,1.680897 -1.978608,3.324328 -2.152356,3.250467 -2.034652,2.78093 -1.512308,6.032644 0.127804,0.795604 0.02754,1.117201 -0.589315,1.890305 -0.894536,1.121108 -1.907211,1.252345 -2.514285,0.325828 z"
       style="fill:#ff0000;fill-opacity:0.05;stroke-width:0.0689854"
       id="BICEPS" />
    <path
       d="m 42.627353,96.386347 c -0.196533,-0.24583 -0.497422,-0.407821 -0.686792,-0.369755 -0.444791,0.08941 -0.881338,-0.289367 -0.881338,-0.764702 0,-0.209386 0.200628,-0.810582 0.445836,-1.335989 0.245205,-0.525407 0.721762,-1.714421 1.059016,-2.642252 0.337254,-0.92783 0.802262,-2.193049 1.033354,-2.811603 0.941668,-2.520558 0.666665,-2.196277 -0.7591,0.895123 -1.123392,2.435807 -2.453632,3.052972 -1.994294,0.925264 0.104865,-0.485754 0.287012,-1.431446 0.40477,-2.101543 0.117758,-0.670103 0.291973,-1.298496 0.387146,-1.396434 0.09515,-0.09794 0.173038,-0.698408 0.173038,-1.334392 0,-2.319821 0.741762,-5.590196 1.790059,-7.892193 0.336802,-0.739595 0.672883,-1.540898 0.746845,-1.780682 0.07395,-0.239776 0.708297,-1.659007 1.409658,-3.153842 0.701352,-1.494835 1.492477,-3.39267 1.75805,-4.217405 0.265573,-0.824736 0.55912,-1.668217 0.65233,-1.874404 0.09321,-0.206182 0.219035,-0.528725 0.279617,-0.716748 0.197967,-0.614445 0.766284,-0.293437 0.775975,0.438295 0.02403,1.814055 -0.269552,7.824274 -0.398142,8.150945 -0.08114,0.206184 0.419185,-0.152294 1.11188,-0.796618 1.586637,-1.475841 1.956815,-1.511456 3.013535,-0.289909 0.419454,0.484878 1.038664,1.155779 1.376024,1.490897 l 0.613388,0.609304 -0.308758,1.367568 c -0.540067,2.392122 -1.644449,4.763699 -3.082208,6.618796 -2.719064,3.508322 -4.344553,6.226842 -6.442651,10.77491 -1.018321,2.207411 -1.228619,2.537744 -1.647402,2.587655 -0.324519,0.03869 -0.593402,-0.08456 -0.829836,-0.380286 z m 0.703572,-2.251779 c 0.324572,-0.642974 0.790411,-1.701138 1.035195,-2.351472 0.244787,-0.650332 0.697397,-1.682297 1.005806,-2.293246 0.802732,-1.59021 1.505527,-3.210484 1.349904,-3.112167 -0.437586,0.276444 -4.364699,8.925931 -4.052631,8.925931 0.03937,0 0.337151,-0.526071 0.661726,-1.169046 z"
       style="fill:#ff0000;fill-opacity:0.05;stroke-width:0.0495938"
       id="PREDPLECHIA" />
    <path
       d="m 70.823537,99.789149 c -0.183576,-0.106946 -0.333775,-0.289934 -0.333775,-0.406681 0,-0.116748 -0.498337,-0.820571 -1.107411,-1.564045 -0.609078,-0.743487 -1.358656,-1.707364 -1.665729,-2.141964 -0.417116,-0.590335 -0.950087,-0.984469 -2.107356,-1.558422 -1.17593,-0.583197 -1.768081,-1.024636 -2.458445,-1.832713 -1.382125,-1.61779 -1.374939,-2.053284 0.09007,-5.460987 2.076913,-4.831033 1.998017,-4.535117 1.980446,-7.428072 -0.0086,-1.416171 -0.11331,-3.079556 -0.232682,-3.696409 -0.119375,-0.616852 -0.392557,-2.676742 -0.607071,-4.577532 -0.214516,-1.900791 -0.522433,-3.990449 -0.684263,-4.643681 -0.462544,-1.86708 -0.474009,-1.85442 1.740729,-1.922751 3.885882,-0.119891 3.895957,-0.118864 4.499797,0.459658 0.417307,0.399801 0.551913,0.703836 0.551913,1.246611 0,1.032819 -0.378793,2.687402 -0.698428,3.050775 -0.241192,0.274198 -0.213982,0.399775 0.227303,1.049017 0.477221,0.702117 0.494258,0.810819 0.354788,2.263381 -0.08058,0.839214 -0.109413,1.869157 -0.06406,2.288765 0.182732,1.691064 0.08589,4.041389 -0.179692,4.361233 -0.228806,0.275551 -0.215863,0.372856 0.09537,0.71695 0.291034,0.32177 0.359058,0.690975 0.354664,1.924978 -0.005,1.37984 -0.04969,1.562682 -0.465003,1.898986 l -0.459563,0.372132 0.542759,0.432781 c 0.619043,0.493607 0.826526,1.465911 0.850148,3.983977 0.0079,0.830546 0.135308,1.774799 0.289518,2.143879 0.585597,1.40153 1.155113,4.550392 1.1376,6.28981 -0.02474,2.459332 -0.575789,3.376935 -1.651609,2.750324 z"
       style="fill:#ff0000;fill-opacity:0.05;stroke-width:0.0504642"
       id="KOSS_PRESS" />
    <path
       d="m 68.898534,158.86217 c -1.014757,-1.12041 -1.280637,-1.9497 -1.482527,-4.62408 -0.148259,-1.96397 -0.263038,-2.41776 -0.612129,-2.42015 -0.23631,-0.002 -0.863954,-0.0747 -1.394761,-0.16258 l -0.965108,-0.15962 -0.19222,1.56666 c -0.108246,0.88223 -0.566457,2.32611 -1.048853,3.30504 -0.697857,1.41618 -0.975185,1.7384 -1.49625,1.7384 -0.571442,0 -0.678564,-0.18528 -1.005044,-1.7384 -0.200986,-0.95611 -0.490022,-2.27995 -0.642303,-2.94188 -0.152278,-0.66193 -0.383637,-3.6105 -0.51413,-6.5524 -0.130495,-2.94188 -0.424611,-7.09395 -0.65359,-9.22682 -0.228981,-2.13287 -0.537379,-5.28808 -0.685329,-7.01156 -0.147955,-1.72347 -0.391297,-4.01012 -0.540768,-5.08143 -0.536197,-3.84313 -0.566931,-6.40849 -0.109845,-9.16883 0.243573,-1.47096 0.503148,-3.3745 0.576832,-4.23011 0.08538,-0.99161 0.270489,-1.60805 0.510484,-1.70015 0.207079,-0.0794 0.37651,-0.31635 0.37651,-0.52645 0,-0.21008 0.171537,-0.64849 0.381193,-0.97429 0.209656,-0.32578 0.627727,-1.33137 0.929045,-2.23461 0.301318,-0.90326 0.913032,-2.30769 1.359366,-3.12097 0.446328,-0.81327 0.889664,-2.0489 0.985189,-2.74582 0.299977,-2.188587 2.021779,-3.128467 2.162942,-1.180687 0.03722,0.513607 0.239858,1.595787 0.450297,2.404807 0.210439,0.80902 0.520319,2.37356 0.688623,3.47678 0.276437,1.81201 0.703988,3.3257 1.964073,6.95356 0.229913,0.66191 0.912318,2.76803 1.516457,4.68026 0.604139,1.91224 1.269175,3.85223 1.477851,4.31111 0.208683,0.4589 0.629693,1.84293 0.935578,3.07562 0.305887,1.23271 0.718113,2.78286 0.916061,3.44478 0.197951,0.66191 0.554731,2.52735 0.792851,4.14537 0.238117,1.61805 0.562059,3.664 0.719873,4.54656 0.382294,2.13798 0.546007,12.29183 0.26331,16.33093 -0.328808,4.69795 -1.105812,6.1161 -3.507713,6.40212 -1.378829,0.16419 -1.513843,0.1278 -2.155965,-0.58116 z"
       style="fill:#ff0000;fill-opacity:0.05;stroke-width:0.0707612"
       id="KVADR" />
    <path
       d="m 62.908234,208.85679 c -0.422614,-0.2948 -0.466571,-0.49396 -0.46673,-2.11454 -2.65e-4,-2.82675 -0.68343,-9.00933 -1.813018,-16.40791 -0.310909,-2.03637 -0.364077,-3.91382 -0.364077,-12.85625 0,-10.30469 0.0083,-10.51249 0.512059,-13.03574 0.298428,-1.49435 0.623943,-2.60704 0.780237,-2.667 0.580557,-0.2228 0.884973,0.38032 0.884973,1.75331 0,0.73941 0.136428,1.87104 0.303173,2.51478 0.338942,1.30847 0.993185,4.71708 1.358958,7.08013 0.132398,0.85535 0.409972,2.25502 0.616829,3.11038 0.206859,0.85537 0.437353,2.02174 0.512209,2.59198 0.07485,0.57023 0.316259,2.01657 0.536446,3.21408 0.220189,1.19747 0.493252,3.34365 0.606808,4.76924 0.175602,2.20451 1.270421,9.33167 1.550784,10.09545 0.168733,0.45966 1.032939,8.25028 1.039784,9.3734 l 0.0068,1.1176 -1.762551,0.51692 c -0.969405,0.2843 -2.010233,0.69118 -2.312959,0.90415 -0.662326,0.46597 -1.359024,0.47999 -1.989738,0.0402 z"
       style="fill:#ff0000;fill-opacity:0.05;stroke-width:0.0548637"
       id="GOLEN"
       sodipodi:nodetypes="csssccssssssssscsscc" />
    <path
       d="m 69.003258,200.29573 c -0.211986,-0.67824 -0.372951,-2.20304 -0.637762,-6.0415 -0.158266,-2.29402 -0.443394,-5.85054 -0.633621,-7.9034 -0.284761,-3.07298 -0.304618,-4.13546 -0.112385,-6.01341 0.318437,-3.11083 0.452544,-3.49319 2.046767,-5.83551 0.937228,-1.37703 1.570879,-2.5855 1.94165,-3.703 0.426537,-1.28558 0.637603,-1.65885 0.937956,-1.65885 0.336708,0 0.418999,0.2721 0.627105,2.07358 0.501983,4.34553 0.164258,9.77898 -0.96665,15.55191 -0.353336,1.80366 -0.727737,4.10908 -1.885821,11.6121 -0.268113,1.73707 -0.458986,2.17726 -0.944068,2.17726 -0.160684,0 -0.328612,-0.11664 -0.373171,-0.25918 z"
       style="fill:#ff0000;fill-opacity:0.05;stroke-width:0.014516"
       id="GOLEN1" />
    <path
       d="m 90.734765,199.89231 c -0.12533,-0.40227 -0.926761,-4.91315 -1.464413,-8.24251 -0.267049,-1.6537 -0.771165,-4.63967 -1.120256,-6.63551 -1.035437,-5.91981 -1.054317,-6.07167 -1.046967,-8.42192 0.0085,-2.65676 0.465632,-6.85618 0.781018,-7.17157 0.320175,-0.32017 0.870797,-0.0406 0.870797,0.44211 0,0.72269 0.839067,2.57521 1.5709,3.46833 0.388757,0.47442 1.078616,1.55187 1.53303,2.3943 1.305983,2.42122 1.44499,4.1324 0.883547,10.87656 -0.245362,2.9473 -0.557652,7.085 -0.693987,9.19488 -0.244684,3.78676 -0.367347,4.35452 -0.94076,4.35452 -0.160689,0 -0.328496,-0.11663 -0.372909,-0.25919 z"
       style="fill:#ff0000;fill-opacity:0.05;stroke-width:0.0548637"
       id="GOLEN2" />
  </g>
</svg>
